<?xml version="1.0" encoding="UTF-8"?>
<svg version="1.1" xmlns="http://www.w3.org/2000/svg" width="800" height="800">
<path d="M0 0 C2.6214775 2.28002455 5.2006915 4.59252053 7.74609375 6.95703125 C9.31042635 8.37496184 10.92924891 9.73413471 12.5859375 11.04296875 C16.20382169 13.9759137 19.00124814 17.45283826 22 21 C22.76570313 21.86625 23.53140625 22.7325 24.3203125 23.625 C31.17556273 31.53325105 36.7950366 39.92624669 42 49 C42.35835938 49.62326172 42.71671875 50.24652344 43.0859375 50.88867188 C52.57636588 67.74666966 58.64672592 86.82373354 61 106 C61.0920874 106.74403076 61.1841748 107.48806152 61.27905273 108.25463867 C66.01968028 150.16447348 56.52130548 193.72401192 30.34472656 227.31298828 C1.72716291 263.21483375 -35.7741354 287.25866369 -81.89361572 292.79850769 C-85.34259892 293.1284302 -88.77932513 293.182443 -92.2421875 293.203125 C-93.00943146 293.20882507 -93.77667542 293.21452515 -94.56716919 293.22039795 C-96.18571625 293.22978725 -97.80428191 293.23635756 -99.42285156 293.24023438 C-101.83434936 293.24983811 -104.24495511 293.28087646 -106.65625 293.3125 C-146.81189045 293.58483821 -185.88185007 277.53276194 -214.53320312 249.43164062 C-216.07210882 247.92961949 -217.63627044 246.45718067 -219.203125 244.984375 C-241.51050711 223.72032257 -255.3915376 196.68413197 -263 167 C-263.18224121 166.28908203 -263.36448242 165.57816406 -263.55224609 164.84570312 C-268.8938586 142.54380652 -268.52776009 114.21533772 -263 92 C-262.80132324 91.17226074 -262.60264648 90.34452148 -262.39794922 89.49169922 C-256.12190009 63.95969712 -244.64184127 41.51922031 -227 22 C-225.76931827 20.56379687 -224.53994149 19.12647336 -223.3125 17.6875 C-215.64526953 9.04836707 -207.26209238 1.86161823 -198 -5 C-197.41863281 -5.43103027 -196.83726562 -5.86206055 -196.23828125 -6.30615234 C-138.867174 -48.15805277 -54.65726441 -44.47600927 0 0 Z " fill="#F7BA23" transform="translate(411,275)"/>
<path d="M0 0 C8.50167854 3.06965764 13.0158068 10.65339464 16.75 18.4375 C20.9490115 27.60534177 21.38622301 36.65566373 21.375 46.625 C21.37584595 48.52052612 21.37584595 48.52052612 21.37670898 50.4543457 C21.07315382 76.85369236 21.07315382 76.85369236 16 87 C24.77124019 81.39551926 29.37164987 73.94852047 34.375 65 C39.78605444 55.63610402 46.29343858 47.24639994 57 44 C62.97262329 43.10013652 67.91948531 43.49202557 73 47 C79.08021743 53.58690221 79.52400354 59.27816191 79.3125 67.890625 C79.00799936 73.42746169 77.4220096 78.0356325 75 83 C74.34644531 84.36898437 74.34644531 84.36898437 73.6796875 85.765625 C70.22468751 92.52458674 65.94487104 98.26468489 61 104 C60.36835937 104.7425 59.73671875 105.485 59.0859375 106.25 C55.52482034 110.31984818 51.83854792 114.18199416 47.96484375 117.953125 C38.63672527 127.04378169 31.05470495 135.74991989 24.2265625 146.89453125 C15.34628194 161.25969098 4.19874406 172.24567083 -12.625 176.25 C-29.03928176 179.07041064 -47.38494809 176.58608078 -61.5 167.3671875 C-63.76061002 165.66409279 -65.88639348 163.88147632 -68 162 C-68.63808594 161.46632813 -69.27617188 160.93265625 -69.93359375 160.3828125 C-77.39868666 153.67225586 -81.37291909 143.50601447 -82.2019043 133.58325195 C-82.34728068 130.13779833 -82.42472067 126.69409416 -82.47851562 123.24609375 C-82.63760922 118.1473381 -83.0326268 114.34628922 -86 110 C-87.88103298 108.64844603 -87.88103298 108.64844603 -90 107.9375 C-92.63603788 106.74062251 -93.97907583 106.02223193 -96 103.875 C-97.4712543 99.64514389 -97.73377417 95.42422662 -97 91 C-95.6015625 88.69140625 -95.6015625 88.69140625 -94 87 C-93.34 87 -92.68 87 -92 87 C-92.515625 86.05125 -93.03125 85.1025 -93.5625 84.125 C-95.84523687 78.72944012 -95.34342099 73.37159541 -93.1953125 67.98046875 C-90.73115565 63.85255636 -88.05686922 62.46065282 -83.625 60.75 C-76.75972337 57.97251577 -74.47450345 53.25042949 -71 47 C-67.06498149 41.18094233 -61.98299424 37.37073591 -55 36 C-45.02703132 35.04196679 -38.19515918 37.16506788 -30.4375 43.4375 C-25.02015491 48.46380433 -21.58114736 54.59882107 -18 61 C-17.56282473 51.05426269 -17.97274284 41.88307347 -20.0625 32.125 C-21.94578472 23.1883116 -23.49765859 14.99531719 -19.25 6.5 C-18.5075 5.675 -17.765 4.85 -17 4 C-16.34 3.21625 -15.68 2.4325 -15 1.625 C-10.13423685 -1.01062171 -5.39851912 -0.79328044 0 0 Z " fill="#F8BF2B" transform="translate(591,234)"/>
<path d="M0 0 C0.62003906 0.52851563 1.24007812 1.05703125 1.87890625 1.6015625 C2.88953125 2.3440625 3.90015625 3.0865625 4.94140625 3.8515625 C9.80401913 7.90829291 16.10214249 15.18813206 17.22265625 21.5546875 C17.63336309 27.592078 17.63336309 27.592078 15.4921875 30.45703125 C11.05395614 34.35612822 6.56876828 36.22814753 0.87890625 37.6015625 C-0.11109375 38.0965625 -0.11109375 38.0965625 -1.12109375 38.6015625 C-2.11109375 36.6215625 -2.11109375 36.6215625 -3.12109375 34.6015625 C-9.57616202 34.87052368 -13.45435966 37.16969687 -18.12109375 41.6015625 C-19.37893121 43.25214916 -19.37893121 43.25214916 -20.37109375 44.9140625 C-22.12109375 47.6015625 -22.12109375 47.6015625 -24.37109375 48.4765625 C-24.94859375 48.5178125 -25.52609375 48.5590625 -26.12109375 48.6015625 C-24.99818954 42.13766516 -19.47557461 37.40010806 -14.37109375 33.6640625 C-9.70664677 30.70393268 -6.58721458 30.32362415 -1.12109375 30.6015625 C2.31640625 31.6015625 2.31640625 31.6015625 4.87890625 32.6015625 C3.15664129 29.35306273 3.15664129 29.35306273 -0.12109375 28.6015625 C-7.657724 27.92943612 -12.97576193 28.05401696 -19.12109375 32.6015625 C-20.11109375 33.3028125 -21.10109375 34.0040625 -22.12109375 34.7265625 C-28.20860152 40.00023234 -32.31544438 47.59916765 -36.12109375 54.6015625 C-40.53256645 51.36648252 -40.96803933 47.75599058 -41.82421875 42.6484375 C-41.9221875 41.97296875 -42.02015625 41.2975 -42.12109375 40.6015625 C-43.44109375 41.2615625 -44.76109375 41.9215625 -46.12109375 42.6015625 C-38.5925207 32.77259213 -28.52866198 25.49619888 -16.68359375 21.8515625 C-12.50126771 21.44353069 -8.31923068 21.528197 -4.12109375 21.6015625 C-4.45109375 19.2915625 -4.78109375 16.9815625 -5.12109375 14.6015625 C-17.33370232 13.75116809 -26.44874632 17.2829422 -36.12109375 24.6015625 C-36.73726562 25.05273438 -37.3534375 25.50390625 -37.98828125 25.96875 C-43.9852014 30.68632719 -48.13748486 37.01135147 -51.80126953 43.64257812 C-54.69905023 47.3387581 -56.35255569 47.66570683 -60.9140625 48.5078125 C-61.57346329 48.63851639 -62.23286407 48.76922028 -62.9122467 48.90388489 C-64.31658217 49.18072802 -65.72303255 49.44702111 -67.13122559 49.70352173 C-70.77292233 50.36925378 -74.39763387 51.11650306 -78.0234375 51.86328125 C-78.7318277 52.00775192 -79.4402179 52.1522226 -80.17007446 52.30107117 C-88.69553004 54.07690131 -97.65852457 56.50676162 -105.29296875 60.83203125 C-107.12109375 61.6015625 -107.12109375 61.6015625 -109.2109375 61.52734375 C-111.95442836 60.1976764 -112.42862288 58.53898299 -113.68359375 55.7890625 C-120.70842883 42.29997768 -131.0844465 34.22296851 -144.95703125 28.4140625 C-149.15390649 27.33634639 -153.11520542 27.21807844 -157.43359375 27.2265625 C-158.28083008 27.22817383 -159.12806641 27.22978516 -160.00097656 27.23144531 C-166.17618771 27.3529952 -170.86076288 28.22399647 -176.12109375 31.6015625 C-177.47439862 32.35311642 -178.82852183 33.10319931 -180.18359375 33.8515625 C-181.15296875 34.4290625 -182.12234375 35.0065625 -183.12109375 35.6015625 C-181.69893801 31.16540624 -179.28337647 28.22501809 -176.12109375 24.9140625 C-175.62834961 24.39150879 -175.13560547 23.86895508 -174.62792969 23.33056641 C-173.61414847 22.25988598 -172.59689324 21.19248414 -171.57617188 20.12841797 C-170.26525724 18.75283741 -168.98050713 17.35243618 -167.69921875 15.94921875 C-149.47633655 -3.40494976 -122.02655382 -15.31113158 -96.12109375 -19.3984375 C-94.50460937 -19.70394531 -94.50460937 -19.70394531 -92.85546875 -20.015625 C-62.40002795 -25.28398324 -24.39135662 -20.39350995 0 0 Z " fill="#FBE891" transform="translate(373.12109375,276.3984375)"/>
<path d="M0 0 C2.59461433 1.64325574 2.92391959 2.70259478 3.6875 5.6875 C3.790625 6.450625 3.89375 7.21375 4 8 C3.01 7.67 2.02 7.34 1 7 C0.3125 4.9375 0.3125 4.9375 0 3 C-7.37199253 3 -11.77622655 7.10646511 -17 12 C-18.23221822 14.46443645 -18.18339117 16.64059359 -18.28979492 19.35668945 C-18.76668316 31.35268324 -21.45511444 40.75657233 -28 51 C-28.51304687 51.45874512 -29.02609375 51.91749023 -29.5546875 52.39013672 C-31.34206171 54.38100589 -31.44530877 55.46300279 -31.625 58.10546875 C-31.72216309 59.32073242 -31.72216309 59.32073242 -31.82128906 60.56054688 C-31.88026367 61.42744141 -31.93923828 62.29433594 -32 63.1875 C-34.79528357 95.81863451 -45.38266853 130.90932475 -70 154 C-79.19150074 161.71099055 -88.80703607 165.89683039 -100.921875 165.4375 C-107.72400017 164.47070048 -112.21891243 161.28168213 -116.625 156.125 C-122.28254903 148.23317641 -125.87010673 139.02452091 -129.31835938 130.00292969 C-132.84908542 120.70345709 -132.84908542 120.70345709 -139 113 C-141.46915186 111.68758887 -141.46915186 111.68758887 -144 112 C-145.66967972 112.6590841 -147.33607955 113.32650839 -149 114 C-155.35384615 114.32307692 -155.35384615 114.32307692 -158 113 C-158 112.34 -158 111.68 -158 111 C-157.32453125 110.93941406 -156.6490625 110.87882812 -155.953125 110.81640625 C-155.06109375 110.73261719 -154.1690625 110.64882813 -153.25 110.5625 C-152.36828125 110.48128906 -151.4865625 110.40007812 -150.578125 110.31640625 C-147.22943605 109.90964308 -147.22943605 109.90964308 -144 109 C-143.30356015 107.01017187 -142.645124 105.00705243 -142 103 C-133.36441235 86.91584706 -117.10516834 79.4254261 -100.37109375 74.1484375 C-91.70295098 71.74624768 -82.78177817 70.26833342 -73.95556641 68.57324219 C-49.81617114 64.17893998 -49.81617114 64.17893998 -31.13671875 49.4921875 C-24.14239734 39.09483186 -22.51350758 30.44813194 -22 18 C-22.57500244 18.72703125 -22.57500244 18.72703125 -23.16162109 19.46875 C-24.89316278 21.65088069 -26.63391368 23.82547869 -28.375 26 C-28.97828125 26.763125 -29.5815625 27.52625 -30.203125 28.3125 C-30.78320312 29.034375 -31.36328125 29.75625 -31.9609375 30.5 C-32.49509277 31.1703125 -33.02924805 31.840625 -33.57958984 32.53125 C-34.28269287 33.25828125 -34.28269287 33.25828125 -35 34 C-35.66 34 -36.32 34 -37 34 C-36.42121466 30.04956037 -34.4853429 27.87297638 -31.9375 24.875 C-28.87783893 21.25070116 -25.92569993 17.59309257 -23.0625 13.8125 C-16.99573267 6.17105865 -10.14241407 -0.71174836 0 0 Z " fill="#CD6917" transform="translate(393,321)"/>
<path d="M0 0 C11.43752912 9.34103702 18.12450386 22.22794526 20.03515625 36.84765625 C20.47259107 48.54428292 16.86426479 59.79875216 9.53515625 68.84375 C6.00264637 71.75116554 2.8979744 72.19592168 -1.5 72.6875 C-6.8253143 73.42602236 -11.18027983 74.26935186 -15.9375 76.9375 C-18.99203502 78.62932158 -20.22045578 79.18256906 -23.8125 79.375 C-35.42861198 75.43381915 -44.12411144 67.62679098 -50.3125 57.1875 C-52.21037132 53.26190302 -53.81734199 49.28166313 -55.3125 45.1875 C-55.745625 44.0325 -56.17875 42.8775 -56.625 41.6875 C-58.99500528 29.62201859 -56.6990594 17.66978772 -50.3125 7.1875 C-45.75643897 0.48741025 -39.40955041 -3.11183757 -32 -6.1875 C-20.27406071 -8.17494734 -9.84776673 -6.95685036 0 0 Z " fill="#DEEFF7" transform="translate(243.3125,318.8125)"/>
<path d="M0 0 C2.6214775 2.28002455 5.2006915 4.59252053 7.74609375 6.95703125 C9.31042635 8.37496184 10.92924891 9.73413471 12.5859375 11.04296875 C16.20382169 13.9759137 19.00124814 17.45283826 22 21 C22.76570313 21.86625 23.53140625 22.7325 24.3203125 23.625 C31.17556273 31.53325105 36.7950366 39.92624669 42 49 C42.35835938 49.62326172 42.71671875 50.24652344 43.0859375 50.88867188 C52.57636588 67.74666966 58.64672592 86.82373354 61 106 C61.0920874 106.74403076 61.1841748 107.48806152 61.27905273 108.25463867 C66.01968028 150.16447348 56.52130548 193.72401192 30.34472656 227.31298828 C1.72716291 263.21483375 -35.7741354 287.25866369 -81.89361572 292.79850769 C-85.34259892 293.1284302 -88.77932513 293.182443 -92.2421875 293.203125 C-93.00943146 293.20882507 -93.77667542 293.21452515 -94.56716919 293.22039795 C-96.18571625 293.22978725 -97.80428191 293.23635756 -99.42285156 293.24023438 C-101.83434936 293.24983811 -104.24495511 293.28087646 -106.65625 293.3125 C-146.81189045 293.58483821 -185.88185007 277.53276194 -214.53320312 249.43164062 C-216.07210882 247.92961949 -217.63627044 246.45718067 -219.203125 244.984375 C-241.51050711 223.72032257 -255.3915376 196.68413197 -263 167 C-263.18224121 166.28908203 -263.36448242 165.57816406 -263.55224609 164.84570312 C-268.8938586 142.54380652 -268.52776009 114.21533772 -263 92 C-262.80132324 91.17226074 -262.60264648 90.34452148 -262.39794922 89.49169922 C-256.12190009 63.95969712 -244.64184127 41.51922031 -227 22 C-225.76931827 20.56379687 -224.53994149 19.12647336 -223.3125 17.6875 C-215.64526953 9.04836707 -207.26209238 1.86161823 -198 -5 C-197.41863281 -5.43103027 -196.83726562 -5.86206055 -196.23828125 -6.30615234 C-138.867174 -48.15805277 -54.65726441 -44.47600927 0 0 Z M-223 22 C-251.54653927 55.43839267 -263.65498466 93.30096472 -263 137 C-262.99274902 137.74233887 -262.98549805 138.48467773 -262.97802734 139.24951172 C-262.69129824 159.12129677 -257.16453863 178.02574327 -249 196 C-248.67628418 196.72300293 -248.35256836 197.44600586 -248.01904297 198.19091797 C-231.78941458 233.9753096 -199.37314604 264.39503638 -163 279 C-159.94148113 280.10697679 -156.85776107 281.10340166 -153.75 282.0625 C-152.92226074 282.31999023 -152.09452148 282.57748047 -151.24169922 282.84277344 C-144.55712848 284.8905802 -137.86296665 286.65064067 -131 288 C-130.05125 288.20496094 -129.1025 288.40992188 -128.125 288.62109375 C-89.81463218 295.85417101 -47.49231528 285.6698102 -15 265 C-8.00017924 260.18439849 -1.54767306 254.88101177 4.69140625 249.12109375 C6.81495436 247.17001655 8.98675681 245.30031718 11.1875 243.4375 C15.19573043 239.92529809 18.62905109 236.1215932 22 232 C23.10794922 230.68322266 23.10794922 230.68322266 24.23828125 229.33984375 C47.59631243 200.46827411 58.54870986 166.01373494 58.25 129.125 C58.24656586 128.42622742 58.24313171 127.72745483 58.23959351 127.00750732 C57.99993826 85.3289025 42.97135577 48.17431863 14 18 C13.17242187 17.12085938 12.34484375 16.24171875 11.4921875 15.3359375 C-7.59275013 -4.41669474 -31.54019986 -18.67543457 -58 -26 C-58.85513184 -26.24411621 -59.71026367 -26.48823242 -60.59130859 -26.73974609 C-119.30913724 -42.83859772 -182.592222 -22.98494223 -223 22 Z " fill="#D16A1D" transform="translate(411,275)"/>
<path d="M0 0 C-0.61161625 20.18333633 -5.33590096 39.35069233 -13 58 C-13.86625 57.67 -14.7325 57.34 -15.625 57 C-19.77959417 55.76900914 -22.7833126 55.1069787 -26.91015625 56.76953125 C-36.63136648 62.07030677 -40.89099563 71.84263168 -44 82 C-44.66 82 -45.32 82 -46 82 C-45.50341703 76.33895411 -44.45489316 72.12325529 -42 67 C-49.19191967 67.83929847 -54.37631272 69.20632858 -59 75 C-64.47812736 83.10179811 -66.1027299 90.29876864 -65 100 C-64.67 100.99 -64.34 101.98 -64 103 C-69.05988086 103.35077164 -71.14530789 101.9283125 -74.99609375 98.859375 C-78.13996766 95.94225223 -80.80610187 92.68973777 -83 89 C-83 88.34 -83 87.68 -83 87 C-83.66 87 -84.32 87 -85 87 C-87.31367261 82.12651939 -89.27333311 77.2799447 -90.875 72.125 C-93.35440903 64.53180984 -96.43476011 57.08456853 -102.4375 51.625 C-105 49 -105 49 -105.1875 46.5625 C-103.55442859 43.03850379 -101.38462442 40.05337518 -99 37 C-96.70215029 39.12908109 -95.66409535 40.62702201 -94.125 43.5 C-92.18889592 46.90437631 -90.80917216 48.62221433 -87 50 C-69.74771358 53.49620198 -47.65329356 40.0180611 -33.5625 31.0625 C-25.58025413 25.48896973 -19.86321959 19.7494776 -15.0625 11.25 C-11.92325358 5.83859741 -6.9755404 0 0 0 Z " fill="#5F1313" transform="translate(358,380)"/>
<path d="M0 0 C8.50167854 3.06965764 13.0158068 10.65339464 16.75 18.4375 C20.9490115 27.60534177 21.38622301 36.65566373 21.375 46.625 C21.37584595 48.52052612 21.37584595 48.52052612 21.37670898 50.4543457 C21.07315382 76.85369236 21.07315382 76.85369236 16 87 C24.77124019 81.39551926 29.37164987 73.94852047 34.375 65 C39.78605444 55.63610402 46.29343858 47.24639994 57 44 C62.97262329 43.10013652 67.91948531 43.49202557 73 47 C79.08021743 53.58690221 79.52400354 59.27816191 79.3125 67.890625 C79.00799936 73.42746169 77.4220096 78.0356325 75 83 C74.34644531 84.36898437 74.34644531 84.36898437 73.6796875 85.765625 C70.22468751 92.52458674 65.94487104 98.26468489 61 104 C60.36835937 104.7425 59.73671875 105.485 59.0859375 106.25 C55.52482034 110.31984818 51.83854792 114.18199416 47.96484375 117.953125 C38.63672527 127.04378169 31.05470495 135.74991989 24.2265625 146.89453125 C15.34628194 161.25969098 4.19874406 172.24567083 -12.625 176.25 C-29.03928176 179.07041064 -47.38494809 176.58608078 -61.5 167.3671875 C-63.76061002 165.66409279 -65.88639348 163.88147632 -68 162 C-68.63808594 161.46632813 -69.27617188 160.93265625 -69.93359375 160.3828125 C-77.39868666 153.67225586 -81.37291909 143.50601447 -82.2019043 133.58325195 C-82.34728068 130.13779833 -82.42472067 126.69409416 -82.47851562 123.24609375 C-82.63760922 118.1473381 -83.0326268 114.34628922 -86 110 C-87.88103298 108.64844603 -87.88103298 108.64844603 -90 107.9375 C-92.63603788 106.74062251 -93.97907583 106.02223193 -96 103.875 C-97.4712543 99.64514389 -97.73377417 95.42422662 -97 91 C-95.6015625 88.69140625 -95.6015625 88.69140625 -94 87 C-93.34 87 -92.68 87 -92 87 C-92.515625 86.05125 -93.03125 85.1025 -93.5625 84.125 C-95.84523687 78.72944012 -95.34342099 73.37159541 -93.1953125 67.98046875 C-90.73115565 63.85255636 -88.05686922 62.46065282 -83.625 60.75 C-76.75972337 57.97251577 -74.47450345 53.25042949 -71 47 C-67.06498149 41.18094233 -61.98299424 37.37073591 -55 36 C-45.02703132 35.04196679 -38.19515918 37.16506788 -30.4375 43.4375 C-25.02015491 48.46380433 -21.58114736 54.59882107 -18 61 C-17.56282473 51.05426269 -17.97274284 41.88307347 -20.0625 32.125 C-21.94578472 23.1883116 -23.49765859 14.99531719 -19.25 6.5 C-18.5075 5.675 -17.765 4.85 -17 4 C-16.34 3.21625 -15.68 2.4325 -15 1.625 C-10.13423685 -1.01062171 -5.39851912 -0.79328044 0 0 Z M-15 7 C-19.73331986 15.62685717 -18.08779887 23.5461764 -15.75390625 32.65625 C-12.58330979 46.71858457 -11.97986758 62.4790592 -18.8125 75.4375 C-21.28142844 78.32967332 -23.50483921 79.57016149 -27 81 C-27 80.01 -27 79.02 -27 78 C-26.236875 77.7525 -25.47375 77.505 -24.6875 77.25 C-21.62519304 75.82567118 -20.47609575 75.03419681 -19 72 C-19.57914427 62.40937095 -26.27195716 52.72804284 -33 46 C-40.21742944 40.79375149 -46.07152365 39.14384473 -55 40 C-63.88833722 42.51785662 -68.46531186 49.85485451 -73.1171875 57.30078125 C-74.15367718 58.97665066 -74.15367718 58.97665066 -74 61 C-73.01 61.37125 -72.02 61.7425 -71 62.125 C-66.54362314 64.0348758 -62.54121655 66.68334841 -59 70 C-58.67 70.99 -58.34 71.98 -58 73 C-58.99 73 -59.98 73 -61 73 C-61.33 72.01 -61.66 71.02 -62 70 C-63.75376928 68.58306199 -63.75376928 68.58306199 -65.875 67.375 C-66.92300781 66.73691406 -66.92300781 66.73691406 -67.9921875 66.0859375 C-72.56713332 63.61155046 -76.9201647 63.49917117 -82 64 C-85.7892491 65.64749961 -87.76496145 67.57416223 -90 71 C-91.18680281 75.02568906 -91.7498431 79.09294711 -90.1875 83.06640625 C-86.3082174 88.97465574 -80.89329804 91.7148804 -74.1875 93.3125 C-68.32126981 94.28426154 -62.32435071 94.83697391 -56.95703125 91.87109375 C-52.45731058 88.34999037 -50.19781277 84.17982164 -48 79 C-45.32142857 73.21428571 -45.32142857 73.21428571 -42 71 C-40.34450469 70.61500109 -38.6777567 70.27206865 -37 70 C-38 72 -38 72 -40.375 72.8125 C-44.40444245 74.63534301 -45.28966846 77.55830737 -47.1875 81.41015625 C-47.620625 82.28542969 -48.05375 83.16070312 -48.5 84.0625 C-48.9021875 84.89910156 -49.304375 85.73570312 -49.71875 86.59765625 C-50.96305965 88.93073685 -52.35780504 90.93293484 -54 93 C-53.236875 93.70125 -52.47375 94.4025 -51.6875 95.125 C-46.71630127 100.44302655 -45.31482565 106.03915833 -44 113 C-43.40832031 113.03738281 -42.81664062 113.07476562 -42.20703125 113.11328125 C-37.33428431 113.51868108 -34.09944801 114.14280897 -30 117 C-29.34 117 -28.68 117 -28 117 C-27.72414063 117.57492187 -27.44828125 118.14984375 -27.1640625 118.7421875 C-26.05562904 120.99278117 -26.05562904 120.99278117 -24.7109375 122.9453125 C-21.22589107 128.63144088 -20.51738787 133.59652268 -20.5 140.125 C-20.49403809 140.87668457 -20.48807617 141.62836914 -20.48193359 142.40283203 C-20.60255332 147.85699323 -21.96096143 151.95663333 -24 157 C-24 157.99 -24 158.98 -24 160 C-24.99 160 -25.98 160 -27 160 C-26.6390625 158.97261719 -26.278125 157.94523438 -25.90625 156.88671875 C-22.21923381 146.05258365 -19.61967743 137.44650235 -24.6875 126.5625 C-27.43016703 121.24016683 -31.23586189 117.03440169 -37 115 C-39.33203812 114.9222654 -41.66839059 114.91032272 -44 115 C-44 117.64 -44 120.28 -44 123 C-44.99 123 -45.98 123 -47 123 C-46.96519531 121.9378125 -46.93039062 120.875625 -46.89453125 119.78125 C-46.41870345 107.25514916 -46.41870345 107.25514916 -52.1875 96.4375 C-55.4120771 94.78938282 -57.26547506 94.99701803 -60.7734375 95.62109375 C-69.19425596 97.05411022 -76.31286814 95.67164924 -84 92 C-84.70898438 91.443125 -85.41796875 90.88625 -86.1484375 90.3125 C-86.75945312 89.879375 -87.37046875 89.44625 -88 89 C-90.73398135 89.70957237 -90.73398135 89.70957237 -93 91 C-94.3574858 96.90282322 -94.3574858 96.90282322 -92.125 102.375 C-87.17158349 107.32841651 -80.64519883 107.06952671 -74.01318359 107.12744141 C-71.00779626 107.12390649 -68.00446579 107.07125215 -65 107 C-65 107.99 -65 108.98 -65 110 C-70.28 110 -75.56 110 -81 110 C-80.34 111.65 -79.68 113.3 -79 115 C-78.72875977 117.33666992 -78.72875977 117.33666992 -78.69140625 119.73046875 C-78.65370117 121.05981445 -78.65370117 121.05981445 -78.61523438 122.41601562 C-78.58045097 124.24407681 -78.54912429 126.07220748 -78.52148438 127.90039062 C-78.16200513 140.04377479 -74.3710939 151.24018145 -65.375 159.75 C-50.75580899 171.47293619 -32.57335442 174.50785882 -14.41796875 172.75 C-2.03778129 170.60856217 8.46053826 163.12767742 15.6574707 153.11547852 C19.26117156 148.02716244 19.26117156 148.02716244 22 142.45703125 C24.19058731 137.07468977 28.45512193 132.57163078 32 128 C32.63164063 127.14792969 33.26328125 126.29585938 33.9140625 125.41796875 C37.69456675 120.43896422 41.80336334 116.22437643 46.4375 112.0625 C59.44800156 100.34652003 74.77196179 82.49085087 76.3125 64.3125 C76.24832619 59.41695489 74.62589775 55.10904369 72 51 C69.18479906 48.36891558 67.21387702 47.55001794 63.375 47.5 C56.40584683 47.76646762 50.91887972 50.16295803 45.91015625 55.03125 C41.8476793 59.85795529 38.67495729 65.13709405 35.5 70.5625 C29.92955351 80.06237597 24.08347541 88.69922776 13 92 C9.28587094 92.35776148 5.71467772 92.31779562 2 92 C2 91.01 2 90.02 2 89 C2.556875 89.33 3.11375 89.66 3.6875 90 C6.30284522 91.1309601 8.1806646 91.15662974 11 91 C16.44122283 77.06925024 17.31563982 63.55950154 17.4375 48.75 C17.45555191 47.65754974 17.45555191 47.65754974 17.47396851 46.54302979 C17.67527841 32.29028873 15.3241835 19.2991633 6 8 C2.33811394 4.6316519 -1.18534823 2.75718639 -6.1875 2.4375 C-10.55859636 3.08241586 -12.10275471 3.68886253 -15 7 Z " fill="#D06C19" transform="translate(591,234)"/>
<path d="M0 0 C15.64817029 9.18982782 26.09679304 21.11270158 31.2890625 38.75390625 C34.74962022 52.69644313 34.58506112 67.66045538 27.640625 80.55078125 C27.18558594 81.42863281 26.73054688 82.30648437 26.26171875 83.2109375 C21.41018764 87.54188703 14.56451764 87.16278402 8.29882812 87.84570312 C-1.96721672 89.1697581 -10.40779922 92.70153532 -17.546875 100.42578125 C-18.65095703 101.59753906 -18.65095703 101.59753906 -19.77734375 102.79296875 C-20.29941406 103.37304688 -20.82148438 103.953125 -21.359375 104.55078125 C-22.349375 104.05578125 -22.349375 104.05578125 -23.359375 103.55078125 C-22.15556052 101.05716554 -20.90508778 98.86935042 -19.359375 96.55078125 C-19.93042969 96.31746094 -20.50148437 96.08414063 -21.08984375 95.84375 C-33.50626206 90.25734876 -42.97376253 81.56751019 -49.359375 69.55078125 C-49.75511719 68.86371094 -50.15085938 68.17664063 -50.55859375 67.46875 C-57.88581176 54.09453423 -58.85648223 36.81636417 -54.671875 22.23828125 C-52.82712381 17.19639899 -50.5673317 12.85619683 -47.359375 8.55078125 C-46.699375 8.55078125 -46.039375 8.55078125 -45.359375 8.55078125 C-45.359375 7.89078125 -45.359375 7.23078125 -45.359375 6.55078125 C-44.699375 6.55078125 -44.039375 6.55078125 -43.359375 6.55078125 C-43.13121094 5.94621094 -42.90304688 5.34164063 -42.66796875 4.71875 C-40.98306428 1.9273411 -39.35576148 1.22898171 -36.421875 -0.13671875 C-35.54660156 -0.55308594 -34.67132813 -0.96945312 -33.76953125 -1.3984375 C-23.60564483 -5.8296943 -9.79128791 -4.85461901 0 0 Z M-37.359375 14.55078125 C-45.57996258 23.91842756 -48.82460545 34.76739017 -48.703125 47.09765625 C-47.4440485 59.74565199 -41.20554538 72.50356155 -32.359375 81.55078125 C-23.34378413 88.8677437 -23.34378413 88.8677437 -12.421875 91.48828125 C-9.21731061 90.62803333 -9.21731061 90.62803333 -6.046875 88.67578125 C-1.16519418 86.0259973 4.11133454 85.48668069 9.56176758 84.85400391 C14.76888874 84.13012018 17.26141321 82.82627143 20.640625 78.55078125 C24.94283344 71.6847285 27.80528068 64.61707486 28.640625 56.55078125 C28.723125 55.77476562 28.805625 54.99875 28.890625 54.19921875 C29.59620839 40.66083744 23.68076246 28.96023458 15.640625 18.55078125 C9.01216174 11.20356896 0.7515198 6.0457833 -9.27734375 5.34765625 C-20.29185675 5.18974209 -28.88225772 7.1874458 -37.359375 14.55078125 Z " fill="#EFAB25" transform="translate(234.359375,306.44921875)"/>
<path d="M0 0 C-0.83756454 6.05378926 -4.12166468 9.47273062 -8 14 C-8.53109375 14.65097656 -9.0621875 15.30195313 -9.609375 15.97265625 C-20.98751739 28.68172814 -38.30337489 35.42647633 -54 41 C-54.78850342 41.28625244 -55.57700684 41.57250488 -56.3894043 41.86743164 C-63.56910182 44.39023009 -70.27322562 45.69398835 -77.4375 42.4375 C-81.04659357 39.00445977 -83.61771882 35.60608893 -84.36328125 30.5234375 C-83.72910109 26.11827206 -80.44651446 24.53778665 -77.05078125 21.9921875 C-69.8058612 17.26118977 -61.88155659 13.94672739 -53.53857422 11.70019531 C-51.13487307 11.037201 -48.77020382 10.29533025 -46.39453125 9.5390625 C-40.94809938 7.89854674 -35.48601317 6.94792331 -29.875 6.0625 C-21.41697301 4.66868835 -13.16662779 2.94688923 -4.88671875 0.734375 C-2 0 -2 0 0 0 Z " fill="#E5EAEA" transform="translate(345,387)"/>
<path d="M0 0 C7.49793796 3.28217129 13.14559242 10.09835604 16.15625 17.625 C17.93572485 25.00458688 18.62411468 34.43950513 14.5703125 41.12890625 C13.17578125 42.90234375 13.17578125 42.90234375 11.8203125 44.37890625 C11.1809375 45.16265625 10.5415625 45.94640625 9.8828125 46.75390625 C5.83243264 49.94511463 1.16767457 50.96213671 -3.96484375 50.82421875 C-9.90850625 49.62919666 -14.76899444 45.72826483 -19.0546875 41.62890625 C-23.81133802 34.35402899 -26.88463084 26.12020364 -26.1796875 17.37890625 C-24.41612503 11.24477594 -22.24758271 6.45794386 -17.1796875 2.37890625 C-16.4578125 1.78078125 -15.7359375 1.18265625 -14.9921875 0.56640625 C-10.09511782 -1.50124539 -5.1011839 -1.45356315 0 0 Z " fill="#2E3366" transform="translate(240.1796875,338.62109375)"/>
<path d="M0 0 C2.6214775 2.28002455 5.2006915 4.59252053 7.74609375 6.95703125 C9.31042635 8.37496184 10.92924891 9.73413471 12.5859375 11.04296875 C16.20382169 13.9759137 19.00124814 17.45283826 22 21 C22.76570313 21.86625 23.53140625 22.7325 24.3203125 23.625 C31.17556273 31.53325105 36.7950366 39.92624669 42 49 C42.35835938 49.62326172 42.71671875 50.24652344 43.0859375 50.88867188 C52.57636588 67.74666966 58.64672592 86.82373354 61 106 C61.0920874 106.74403076 61.1841748 107.48806152 61.27905273 108.25463867 C66.01968028 150.16447348 56.52130548 193.72401192 30.34472656 227.31298828 C1.72716291 263.21483375 -35.7741354 287.25866369 -81.89361572 292.79850769 C-85.34259892 293.1284302 -88.77932513 293.182443 -92.2421875 293.203125 C-93.00943146 293.20882507 -93.77667542 293.21452515 -94.56716919 293.22039795 C-96.18571625 293.22978725 -97.80428191 293.23635756 -99.42285156 293.24023438 C-101.83434936 293.24983811 -104.24495511 293.28087646 -106.65625 293.3125 C-146.81189045 293.58483821 -185.88185007 277.53276194 -214.53320312 249.43164062 C-216.07210882 247.92961949 -217.63627044 246.45718067 -219.203125 244.984375 C-241.51050711 223.72032257 -255.3915376 196.68413197 -263 167 C-263.18224121 166.28908203 -263.36448242 165.57816406 -263.55224609 164.84570312 C-268.8938586 142.54380652 -268.52776009 114.21533772 -263 92 C-262.80132324 91.17226074 -262.60264648 90.34452148 -262.39794922 89.49169922 C-256.12190009 63.95969712 -244.64184127 41.51922031 -227 22 C-225.76931827 20.56379687 -224.53994149 19.12647336 -223.3125 17.6875 C-215.64526953 9.04836707 -207.26209238 1.86161823 -198 -5 C-197.41863281 -5.43103027 -196.83726562 -5.86206055 -196.23828125 -6.30615234 C-138.867174 -48.15805277 -54.65726441 -44.47600927 0 0 Z M-167 -21 C-167.62406738 -20.70577148 -168.24813477 -20.41154297 -168.89111328 -20.10839844 C-191.25550404 -9.47517178 -212.41483177 5.50974447 -228 25 C-229.15048828 26.41152344 -229.15048828 26.41152344 -230.32421875 27.8515625 C-244.50305973 45.54282038 -254.20529539 65.12609594 -260 87 C-260.29648437 87.99644531 -260.59296875 88.99289062 -260.8984375 90.01953125 C-264.41921096 101.92392864 -265.34635747 113.94717856 -265.25 126.3125 C-265.24323242 127.5814209 -265.23646484 128.8503418 -265.22949219 130.15771484 C-265.12602446 139.57688752 -264.65540589 148.71861691 -263 158 C-262.86577637 158.7645752 -262.73155273 159.52915039 -262.59326172 160.31689453 C-256.52915089 193.8340342 -240.05349602 220.4991993 -217 245 C-216.00033203 246.08087891 -216.00033203 246.08087891 -214.98046875 247.18359375 C-192.99603754 270.18625125 -162.00843908 284.69827928 -131 290 C-130.32984863 290.11859375 -129.65969727 290.2371875 -128.96923828 290.359375 C-102.11595195 294.91514587 -74.71418575 292.62220507 -49 284 C-47.9171875 283.64292969 -46.834375 283.28585937 -45.71875 282.91796875 C-26.51429379 276.05577038 -9.24324467 265.22517002 5.55859375 251.28515625 C7.62934139 249.34693646 9.74535715 247.54602669 11.9375 245.75 C27.80039626 231.8255432 39.26875768 212.99607521 48 194 C48.45761719 193.08089844 48.91523438 192.16179687 49.38671875 191.21484375 C56.30324297 176.39995434 60.07145214 157.92576212 60.23828125 141.62890625 C60.25304001 140.44250298 60.25304001 140.44250298 60.26809692 139.23213196 C60.74662799 90.72764199 48.43274416 51.78562141 15 16 C14.20207031 15.13632812 13.40414063 14.27265625 12.58203125 13.3828125 C-2.25399407 -2.10411256 -20.20226289 -13.8479906 -40 -22 C-41.67642578 -22.72123047 -41.67642578 -22.72123047 -43.38671875 -23.45703125 C-62.11232001 -31.23649886 -80.75233359 -33.46775468 -100.875 -33.5 C-101.73769501 -33.50449158 -102.60039001 -33.50898315 -103.48922729 -33.51361084 C-125.11413005 -33.55936912 -147.30193124 -30.29571784 -167 -21 Z " fill="#DA0B67" transform="translate(411,275)"/>
<path d="M0 0 C2.875 1.5 2.875 1.5 5 3 C-0.08211144 20.05048387 -14.42667309 37.63822891 -29.921875 46.0546875 C-33.48519336 47.67559548 -36.72450432 48.17172918 -40.625 48.25 C-41.78902344 48.28867187 -41.78902344 48.28867187 -42.9765625 48.328125 C-43.64429688 48.21984375 -44.31203125 48.1115625 -45 48 C-48.30100164 43.04849754 -47.73829804 37.7738693 -47 32 C-45.02848032 26.55810814 -42.58901169 20.74664516 -38 17 C-37.34 17 -36.68 17 -36 17 C-35.67 16.01 -35.34 15.02 -35 14 C-31.36632439 11.23840654 -27.34961164 11.85501295 -23 12 C-23.65271556 15.51705958 -24.51393024 18.89325077 -25.5625 22.3125 C-25.83191406 23.19550781 -26.10132813 24.07851563 -26.37890625 24.98828125 C-26.58386719 25.65214844 -26.78882813 26.31601562 -27 27 C-26.34 27 -25.68 27 -25 27 C-24.938125 26.21625 -24.87625 25.4325 -24.8125 24.625 C-22.67513888 15.08908117 -17.16337139 6.37199764 -8.9375 1 C-5.65424725 -0.11770306 -3.44226602 -0.43943822 0 0 Z " fill="#CD0E1B" transform="translate(339,435)"/>
<path d="M0 0 C8.50167854 3.06965764 13.0158068 10.65339464 16.75 18.4375 C20.9490115 27.60534177 21.38622301 36.65566373 21.375 46.625 C21.37584595 48.52052612 21.37584595 48.52052612 21.37670898 50.4543457 C21.07315382 76.85369236 21.07315382 76.85369236 16 87 C24.77124019 81.39551926 29.37164987 73.94852047 34.375 65 C39.78605444 55.63610402 46.29343858 47.24639994 57 44 C62.97262329 43.10013652 67.91948531 43.49202557 73 47 C79.08021743 53.58690221 79.52400354 59.27816191 79.3125 67.890625 C79.00799936 73.42746169 77.4220096 78.0356325 75 83 C74.34644531 84.36898437 74.34644531 84.36898437 73.6796875 85.765625 C70.22468751 92.52458674 65.94487104 98.26468489 61 104 C60.36835937 104.7425 59.73671875 105.485 59.0859375 106.25 C55.52482034 110.31984818 51.83854792 114.18199416 47.96484375 117.953125 C38.63672527 127.04378169 31.05470495 135.74991989 24.2265625 146.89453125 C15.34628194 161.25969098 4.19874406 172.24567083 -12.625 176.25 C-29.03928176 179.07041064 -47.38494809 176.58608078 -61.5 167.3671875 C-63.76061002 165.66409279 -65.88639348 163.88147632 -68 162 C-68.63808594 161.46632813 -69.27617188 160.93265625 -69.93359375 160.3828125 C-77.39868666 153.67225586 -81.37291909 143.50601447 -82.2019043 133.58325195 C-82.34728068 130.13779833 -82.42472067 126.69409416 -82.47851562 123.24609375 C-82.63760922 118.1473381 -83.0326268 114.34628922 -86 110 C-87.88103298 108.64844603 -87.88103298 108.64844603 -90 107.9375 C-92.63603788 106.74062251 -93.97907583 106.02223193 -96 103.875 C-97.4712543 99.64514389 -97.73377417 95.42422662 -97 91 C-95.6015625 88.69140625 -95.6015625 88.69140625 -94 87 C-93.34 87 -92.68 87 -92 87 C-92.515625 86.05125 -93.03125 85.1025 -93.5625 84.125 C-95.84523687 78.72944012 -95.34342099 73.37159541 -93.1953125 67.98046875 C-90.73115565 63.85255636 -88.05686922 62.46065282 -83.625 60.75 C-76.75972337 57.97251577 -74.47450345 53.25042949 -71 47 C-67.06498149 41.18094233 -61.98299424 37.37073591 -55 36 C-45.02703132 35.04196679 -38.19515918 37.16506788 -30.4375 43.4375 C-25.02015491 48.46380433 -21.58114736 54.59882107 -18 61 C-17.56282473 51.05426269 -17.97274284 41.88307347 -20.0625 32.125 C-21.94578472 23.1883116 -23.49765859 14.99531719 -19.25 6.5 C-18.5075 5.675 -17.765 4.85 -17 4 C-16.34 3.21625 -15.68 2.4325 -15 1.625 C-10.13423685 -1.01062171 -5.39851912 -0.79328044 0 0 Z M-18.375 7.375 C-22.27420519 16.07322696 -20.04051689 25.49852932 -17.734375 34.375 C-15.59319766 44.94421581 -15.82382636 56.25340776 -16 67 C-16.66 67 -17.32 67 -18 67 C-18.14888672 65.92878906 -18.14888672 65.92878906 -18.30078125 64.8359375 C-20.53892878 55.75831119 -28.35668873 46.15501016 -36.1875 41.125 C-42.88254638 37.13702365 -50.57503038 36.93263233 -58.1640625 38.42578125 C-67.00738607 41.71678979 -71.62577078 50.25368695 -76 58 C-78 61 -78 61 -81.75 61.75 C-86.8195791 62.8211679 -89.16775994 65.84474123 -92 70 C-94.21264666 74.42529333 -93.29045294 79.96526141 -92 84.5625 C-91.67 85.366875 -91.34 86.17125 -91 87 C-91.825 87.680625 -92.65 88.36125 -93.5 89.0625 C-96.2909897 91.8123163 -96.2909897 91.8123163 -96.5 95.5 C-95.79027399 100.4680821 -94.27172761 102.85870599 -90.5625 106.1875 C-88.17101719 108.0220005 -88.17101719 108.0220005 -85.875 108.875 C-82.88621109 110.66827335 -82.27696685 112.77751578 -81 116 C-80.59842775 119.35225529 -80.59088313 122.68913515 -80.5625 126.0625 C-80.09805794 141.41828151 -76.5976517 152.00832184 -65.1875 162.75 C-60.8190373 166.37364818 -56.22471787 168.82303422 -51 171 C-50.1028125 171.39445313 -49.205625 171.78890625 -48.28125 172.1953125 C-34.7666545 177.28106818 -16.44047997 177.31356672 -3.03125 171.7734375 C10.87629716 164.08994694 18.30204205 153.57862352 26.5 140.375 C31.67767136 132.17203798 37.60902136 124.88569272 45.046875 118.6484375 C58.63231513 107.18232603 73.82868412 89.27092146 77.75 71.625 C77.8325 70.42875 77.915 69.2325 78 68 C78.12955078 66.7315625 78.12955078 66.7315625 78.26171875 65.4375 C78.67271757 58.86151889 77.49413364 55.08705161 73.60546875 49.77734375 C71.15959195 47.06962125 69.49953969 46.05336697 65.85546875 45.6640625 C56.66018384 45.39651166 56.66018384 45.39651166 49 50 C48.21625 50.58007812 47.4325 51.16015625 46.625 51.7578125 C43.66083105 54.28970681 41.74371389 56.89789211 39.5625 60.125 C39.17271973 60.69758545 38.78293945 61.2701709 38.38134766 61.86010742 C36.07990054 65.27330274 33.93643677 68.74781712 31.875 72.3125 C27.21812341 80.19336807 21.9960966 85.55693191 14 90 C14.19698486 89.39559082 14.39396973 88.79118164 14.59692383 88.16845703 C16.50412055 82.10535781 17.83846734 76.17087683 18.6875 69.875 C18.81342529 68.94212158 18.93935059 68.00924316 19.0690918 67.0480957 C19.96236383 59.75858469 20.28797944 52.5288412 20.3125 45.1875 C20.31789795 44.20442871 20.3232959 43.22135742 20.32885742 42.20849609 C20.24012598 33.1918387 18.74475822 25.77363392 14.625 17.75 C13.74714844 16.00976562 13.74714844 16.00976562 12.8515625 14.234375 C9.35171016 8.12070888 5.51352656 3.80299909 -1 1 C-8.59849789 -0.49141414 -13.00242636 2.00242636 -18.375 7.375 Z " fill="#DA0B67" transform="translate(591,234)"/>
<path d="M0 0 C1.57514011 16.45146337 -8.30563635 28.5747426 -18.22265625 40.72265625 C-22.12605311 45.1927895 -26.26337719 49.11983671 -30.75 53 C-37.91960856 59.2982342 -43.0092548 67.00027273 -48.43164062 74.78710938 C-65.36842105 98.68421053 -65.36842105 98.68421053 -74 103 C-74.66 102.67 -75.32 102.34 -76 102 C-73.17532484 96.35064968 -69.53991957 92.18819176 -65.25390625 87.5703125 C-62.56110468 84.49949199 -60.35690321 81.26742392 -58.19140625 77.8125 C-57 76 -57 76 -55 74 C-54.67 73.030625 -54.34 72.06125 -54 71.0625 C-51.98331154 66.08800179 -48.14654902 62.64005189 -44.51171875 58.79296875 C-41.67855348 55.64255947 -39.38926769 52.36704951 -37.15625 48.77734375 C-36 47 -36 47 -34 45 C-33.67 44.030625 -33.34 43.06125 -33 42.0625 C-30.98331154 37.08800179 -27.14654902 33.64005189 -23.51171875 29.79296875 C-20.67855348 26.64255947 -18.38926769 23.36704951 -16.15625 19.77734375 C-15 18 -15 18 -13 16 C-12.62875 14.989375 -12.2575 13.97875 -11.875 12.9375 C-10.09075298 8.55546327 -5.11668875 0 0 0 Z " fill="#FBD75F" transform="translate(665,296)"/>
<path d="M0 0 C-0.33 0.99 -0.66 1.98 -1 3 C-2.051875 2.835 -3.10375 2.67 -4.1875 2.5 C-16.89293563 0.96813897 -27.30764086 1.70206291 -37.92578125 9.20703125 C-45.86882517 16.07305227 -49.19752392 26.41086909 -50.2734375 36.5859375 C-50.73478006 49.25511396 -46.16302237 60.68685295 -39 71 C-38.38125 71.9075 -37.7625 72.815 -37.125 73.75 C-34.55483246 76.47135386 -31.70530234 78.47999659 -28.609375 80.5703125 C-28.07828125 81.04210937 -27.5471875 81.51390625 -27 82 C-27 82.99 -27 83.98 -27 85 C-37.56904231 82.08122378 -44.93498436 72.84084061 -50.3671875 63.69921875 C-57.16541192 51.08831132 -59.22947338 37.15935062 -55.4375 23.25 C-51.19975194 11.14004635 -43.6749588 3.39332678 -32.26953125 -2.3828125 C-20.6293421 -7.18670009 -10.94282551 -5.47141276 0 0 Z " fill="#0E0C0A" transform="translate(237,311)"/>
<path d="M0 0 C0.66 0 1.32 0 2 0 C2.99 3.465 2.99 3.465 4 7 C2.6696875 8.0209375 2.6696875 8.0209375 1.3125 9.0625 C-3.68916682 13.23646782 -6.65587772 17.97225698 -9 24 C-10 25 -11 26 -12 27 C-12.5775 28.0725 -13.155 29.145 -13.75 30.25 C-15.73830846 33.87618708 -18.28852628 36.40033846 -21.2578125 39.2421875 C-25.32590227 43.34676238 -27.91579022 47.64060341 -30 53 C-31 54 -32 55 -33 56 C-33.5775 57.0725 -34.155 58.145 -34.75 59.25 C-36.73830846 62.87618708 -39.28852628 65.40033846 -42.2578125 68.2421875 C-46.32590227 72.34676238 -48.91579022 76.64060341 -51 82 C-52 83 -53 84 -54 85 C-54.5775 86.0725 -55.155 87.145 -55.75 88.25 C-57.73775569 91.87517896 -60.28867778 94.3981189 -63.25390625 97.2421875 C-66.53555915 100.54586491 -69.73002277 104.02016701 -70.375 108.75 C-70.58125 109.4925 -70.7875 110.235 -71 111 C-75.0501112 113.25871586 -78.35593314 114.4221879 -83 114 C-82.13375 113.01 -81.2675 112.02 -80.375 111 C-71.80443933 101.45424074 -71.80443933 101.45424074 -66.2421875 90.2421875 C-64.66175682 86.11716402 -62.31238811 83.4905558 -59.375 80.25 C-58.27866612 79.00764038 -57.18361625 77.7641465 -56.08984375 76.51953125 C-55.29102783 75.61581787 -55.29102783 75.61581787 -54.47607422 74.69384766 C-52.56002552 72.49511364 -50.74133042 70.22885216 -48.9375 67.9375 C-45.98865933 64.20754958 -42.95639758 60.55810081 -39.875 56.9375 C-37.91479751 54.62657926 -35.95694187 52.31368235 -34 50 C-33.4234668 49.31921387 -32.84693359 48.63842773 -32.25292969 47.93701172 C-19.56780391 33.46869536 -19.56780391 33.46869536 -11.0625 16.4375 C-8.92239126 9.91392291 -4.82555648 4.82555648 0 0 Z " fill="#FBCF4B" transform="translate(661,289)"/>
<path d="M0 0 C0.33 0 0.66 0 1 0 C1.0093457 0.56807373 1.01869141 1.13614746 1.02832031 1.72143555 C1.44363007 21.86192294 4.99897249 38.63301859 19 54 C19 54.66 19 55.32 19 56 C15.26785344 59.35588111 11.27919343 61.3581108 6.25 61.625 C2.91538674 61.41873526 2.21375128 61.19125115 -0.375 58.875 C-7.9391317 45.49230545 -8.35669401 28.03750687 -4.66479492 13.13232422 C-3.37716242 8.64220815 -1.77505491 4.31770114 0 0 Z " fill="#FBDF76" transform="translate(177,336)"/>
<path d="M0 0 C0.33 0.66 0.66 1.32 1 2 C1.928125 2.3403125 1.928125 2.3403125 2.875 2.6875 C5.37818807 4.23358675 6.3965461 5.79335715 7.47265625 8.515625 C8.67954544 14.20141407 8.20098271 20.21616411 8 26 C7.34 26 6.68 26 6 26 C5.505 27.485 5.505 27.485 5 29 C3.02 28.67 1.04 28.34 -1 28 C-1.625 24.625 -1.625 24.625 -2 21 C-1.34 20.34 -0.68 19.68 0 19 C1.32 19 2.64 19 4 19 C2.83339172 12.8487927 1.44804737 9.44804737 -3 5 C-5.88211302 4.03929566 -7.69850044 3.89418117 -10.6875 3.9375 C-11.49574219 3.94652344 -12.30398437 3.95554687 -13.13671875 3.96484375 C-13.75160156 3.97644531 -14.36648437 3.98804688 -15 4 C-14.67 4.66 -14.34 5.32 -14 6 C-13.59760363 11.23115287 -14.22973823 14.52496176 -17 19 C-20.0832635 20.54163175 -22.60878099 20.29747535 -26 20 C-29.10451166 16.99897206 -29.91052879 13.94839483 -30.3125 9.6875 C-29.91796185 5.03194988 -29.32479632 3.32479632 -26 0 C-17.44124474 -3.34798368 -8.0936102 -5.1325333 0 0 Z " fill="#4578B4" transform="translate(246,348)"/>
<path d="M0 0 C0.99 0 1.98 0 3 0 C3.92063931 7.05823471 1.17882332 11.43364505 -3 17 C-11.33239269 26.92148914 -22.74009215 36.26099569 -36 38 C-43.63306454 38.58972656 -49.7677022 38.41314338 -55.9375 33.4375 C-57 32 -57 32 -57 30 C-56.09459473 29.99383667 -56.09459473 29.99383667 -55.17089844 29.98754883 C-39.22504855 29.79757254 -27.29209102 28.95513115 -15.31640625 17.40234375 C-10.69078137 12.60511053 -6.31389601 7.66918065 -2.1875 2.4375 C-1.465625 1.633125 -0.74375 0.82875 0 0 Z " fill="#F5A316" transform="translate(344,466)"/>
<path d="M0 0 C2.76996514 1.91766818 2.85879756 2.53389682 3.4375 5.6875 C2.78523438 5.71328125 2.13296875 5.7390625 1.4609375 5.765625 C-4.25112259 6.13631916 -8.26374006 6.58868238 -12.5625 10.6875 C-18.87285863 20.46064596 -19.85261405 30.89691968 -20.6875 42.25 C-20.77386719 43.35408203 -20.86023438 44.45816406 -20.94921875 45.59570312 C-21.15936521 48.29258267 -21.36366248 50.98976714 -21.5625 53.6875 C-22.8825 53.6875 -24.2025 53.6875 -25.5625 53.6875 C-27.0089943 47.59062797 -26.78594665 41.41529212 -26.80273438 35.18774414 C-26.81239352 33.02385319 -26.84343163 30.86093231 -26.875 28.69726562 C-26.95234374 18.57369166 -26.43506364 8.73821741 -19.5625 0.6875 C-13.42657698 -3.84139556 -6.76233461 -2.49138643 0 0 Z " fill="#9B1838" transform="translate(187.5625,263.3125)"/>
<path d="M0 0 C1.47347612 4.42042835 0.53121053 7.66157016 -1 12 C-8.09701945 25.46865294 -19.39745786 38.79733543 -31.125 48.5625 C-38.76384376 55.05474247 -44.22734714 63.17829489 -49.5625 71.5625 C-58.58190762 85.73119204 -68.3567592 98.63572082 -85.65234375 102.609375 C-103.46169634 104.68747915 -121.08970417 103.87209071 -136 93 C-133.33150974 91.9702767 -132.18655067 91.93506328 -129.44140625 92.890625 C-128.01634766 93.56351563 -128.01634766 93.56351563 -126.5625 94.25 C-113.20161174 100.04995028 -96.15891662 103.25330829 -82 98 C-68.75716395 92.37441529 -61.43570155 85.10005201 -54 73 C-53.66871094 72.15953125 -53.33742188 71.3190625 -52.99609375 70.453125 C-50.81066369 65.07096783 -46.54185107 60.5710578 -43 56 C-42.3915625 55.17113281 -41.783125 54.34226562 -41.15625 53.48828125 C-37.13280728 48.15016097 -32.63569307 43.76427241 -27.6875 39.3125 C-15.9634616 28.69022469 -5.62166848 14.90145616 0 0 Z " fill="#D0691D" transform="translate(665,306)"/>
<path d="M0 0 C0.97324219 -0.00257813 1.94648438 -0.00515625 2.94921875 -0.0078125 C5.3125 0.125 5.3125 0.125 6.3125 1.125 C6.35342937 3.45797433 6.35491723 5.79205225 6.3125 8.125 C5.36890625 8.19976562 4.4253125 8.27453125 3.453125 8.3515625 C-12.66063058 10.00176638 -25.42782609 17.19265919 -35.8984375 29.72265625 C-41.41683803 37.13273556 -46.15149818 45.08716382 -50.6875 53.125 C-51.81023484 49.82912596 -51.62557181 48.20812095 -50.16796875 45.0703125 C-49.81025391 44.29727783 -49.45253906 43.52424316 -49.08398438 42.7277832 C-48.68501953 41.91011475 -48.28605469 41.09244629 -47.875 40.25 C-47.46701172 39.40590576 -47.05902344 38.56181152 -46.63867188 37.69213867 C-38.10212002 20.53620311 -27.43227541 8.74884498 -9.6875 1.125 C-6.43302224 0.04633786 -3.42094756 -0.00913471 0 0 Z " fill="#0C0A06" transform="translate(362.6875,289.875)"/>
<path d="M0 0 C4.69241302 2.0733918 7.71319554 5.42639108 10 10 C10.039992 11.99960012 10.04346799 14.00047242 10 16 C8.35 16.66 6.7 17.32 5 18 C5.33 20.97 5.66 23.94 6 27 C2.88504922 29.07663385 0.92900829 29.59842241 -2.796875 29.515625 C-7.10786017 28.50667102 -10.33596869 25.43467379 -13 22 C-13.83984375 19.39453125 -13.83984375 19.39453125 -14 17 C-12.125 14.875 -12.125 14.875 -10 13 C-9.03929566 10.11788698 -8.89418117 8.30149956 -8.9375 5.3125 C-8.94652344 4.50425781 -8.95554688 3.69601562 -8.96484375 2.86328125 C-8.97644531 2.24839844 -8.98804688 1.63351562 -9 1 C-5.93570224 -0.53214888 -3.3834358 -0.22938548 0 0 Z " fill="#030303" transform="translate(240,351)"/>
<path d="M0 0 C1 1 1 1 1.4375 3.8125 C1.33261195 11.06475971 -3.33151011 18.6497925 -8.25 23.75 C-11 26 -11 26 -13 26 C-13.2475 26.61875 -13.495 27.2375 -13.75 27.875 C-15.27221172 30.46275992 -16.16777975 31.05592658 -19 32 C-22.25 32.125 -22.25 32.125 -25 32 C-26.21343566 23.12073269 -23.27505867 17.97980324 -18 11 C-17.35417969 10.13632812 -16.70835937 9.27265625 -16.04296875 8.3828125 C-14.02481279 6.02894035 -12.12957073 4.40926148 -9.5625 2.6875 C-8.82128906 2.17574219 -8.08007812 1.66398437 -7.31640625 1.13671875 C-4.65577236 -0.16892115 -2.92782793 -0.2962982 0 0 Z " fill="#F4A318" transform="translate(370,310)"/>
<path d="M0 0 C11.31511065 5.77792884 18.07643871 13.8348224 24 25 C24.68642578 26.25876953 24.68642578 26.25876953 25.38671875 27.54296875 C28.19359158 33.73778633 28.37199201 39.8666474 28.4375 46.5625 C28.4478125 47.43712891 28.458125 48.31175781 28.46875 49.21289062 C28.35547866 57.6012624 26.50917153 65.28623578 22 72.4375 C21.505 73.24058594 21.01 74.04367187 20.5 74.87109375 C17.12981038 79.65430558 17.12981038 79.65430558 13.99804688 80.61254883 C13.24587891 80.72622803 12.49371094 80.83990723 11.71875 80.95703125 C10.88190674 81.0964917 10.04506348 81.23595215 9.18286133 81.37963867 C8.29751709 81.52248291 7.41217285 81.66532715 6.5 81.8125 C-6.72870984 84.23283164 -14.94703394 88.94114882 -24 99 C-24.66 98.67 -25.32 98.34 -26 98 C-24.33248852 94.05860922 -21.77289351 91.2107188 -19 88 C-21.97 87.01 -24.94 86.02 -28 85 C-27.34 83.68 -26.68 82.36 -26 81 C-25.49210938 81.30035156 -24.98421875 81.60070312 -24.4609375 81.91015625 C-21.16277548 83.73217459 -18.8181593 85 -15 85 C-11.85682925 84.05900993 -11.85682925 84.05900993 -8.6875 82.125 C-3.80581918 79.47521605 1.47070954 78.93589944 6.92114258 78.30322266 C12.11986421 77.58050662 14.63050302 76.27619798 18 72 C24.94932907 60.31004335 26.76965519 47.37151163 23.5625 34.25 C19.95227235 22.55184185 12.9108069 11.24388636 2.16796875 4.921875 C0.80795874 4.22116727 -0.59197834 3.5984092 -2 3 C-1.34 2.01 -0.68 1.02 0 0 Z " fill="#874C1F" transform="translate(237,312)"/>
<path d="M0 0 C0.02578125 0.56847656 0.0515625 1.13695312 0.078125 1.72265625 C0.13484375 2.49480469 0.1915625 3.26695312 0.25 4.0625 C0.29640625 4.81660156 0.3428125 5.57070313 0.390625 6.34765625 C0.89692396 9.27059712 0.89692396 9.27059712 3.21484375 12.31640625 C4.47656617 14.41842329 5.04838815 15.48781719 4.81591797 17.94848633 C4.13958376 20.0417175 3.3128154 21.91603891 2.3125 23.875 C1.98306396 24.54321777 1.65362793 25.21143555 1.31420898 25.89990234 C-0.19001467 28.66599277 -1.46081454 30.68260714 -4.203125 32.296875 C-9.54905426 33.08194154 -14.19248144 31.18523571 -19 29 C-18.53038943 23.53732405 -17.19765239 20.04182169 -14.25 15.4375 C-13.70811035 14.58889404 -13.70811035 14.58889404 -13.15527344 13.72314453 C-4.27115499 0 -4.27115499 0 0 0 Z " fill="#F8CD52" transform="translate(332,316)"/>
<path d="M0 0 C-0.33 1.98 -0.66 3.96 -1 6 C-2.27875 6.165 -3.5575 6.33 -4.875 6.5 C-14.25671383 8.62416162 -20.45370693 15.82945835 -25.52734375 23.58984375 C-27.42380297 26.69359797 -29.26296821 29.8038615 -31 33 C-35.4114727 29.76492002 -35.84694558 26.15442808 -36.703125 21.046875 C-36.85007812 20.03367187 -36.85007812 20.03367187 -37 19 C-38.98 19.99 -38.98 19.99 -41 21 C-33.47653901 11.1777037 -23.37662118 3.81298635 -11.5 0.25 C-7.66761507 -0.13323849 -3.84765561 -0.07544423 0 0 Z " fill="#F7D87B" transform="translate(368,298)"/>
<path d="M0 0 C1.06347656 -0.00257813 2.12695312 -0.00515625 3.22265625 -0.0078125 C5.9375 0.125 5.9375 0.125 7.9375 1.125 C8.375 3.25 8.375 3.25 7.9375 6.125 C2.91911577 12.66562745 -5.25248857 15.27030277 -13.07421875 16.66015625 C-20.96652061 17.57688557 -20.96652061 17.57688557 -25.0625 15.125 C-24.57400974 10.89141776 -22.24234691 7.80238803 -19.0625 5.125 C-15.82248424 3.48690591 -12.50613169 2.26314946 -9.0625 1.125 C-5.82377868 0.04542623 -3.40221795 -0.00826784 0 0 Z " fill="#F4A218" transform="translate(239.0625,400.875)"/>
<path d="M0 0 C0.33 0 0.66 0 1 0 C2.51162023 11.08521502 -6.11519544 21.20402769 -12.41015625 29.66015625 C-17.51306653 36.33612979 -23.03924319 43.19376315 -30 48 C-30.99 47.67 -31.98 47.34 -33 47 C-32.41098089 43.71729591 -31.38176788 41.99329724 -29.125 39.5625 C-27.36978149 37.6617483 -25.94727012 35.91167 -24.6171875 33.68359375 C-22.28683149 29.8165537 -19.46291568 26.35446076 -16.671875 22.81640625 C-14.2006198 19.65290186 -12.03535755 16.45537445 -10 13 C-8.33333333 11 -6.66666667 9 -5 7 C-3.98343919 5.34338239 -2.97934924 3.67888441 -2 2 C-1.34 1.34 -0.68 0.68 0 0 Z " fill="#FBDE73" transform="translate(664,301)"/>
<path d="M0 0 C1 2 1 2 0.43017578 3.78076172 C-8.10509906 22.40433364 -17.65079879 39.15446048 -37.6640625 46.96875 C-43.48661256 48.76869522 -48.10610543 48.90494647 -53.8125 46.75 C-56.80323977 45.10802522 -58.78527449 43.56908159 -61 41 C-59.95199219 41.23783203 -59.95199219 41.23783203 -58.8828125 41.48046875 C-46.6473848 43.6854984 -36.58011927 41.34012928 -26.375 34.4375 C-14.76939035 25.48601415 -7.39436046 12.41694493 0 0 Z " fill="#FAE278" transform="translate(345,443)"/>
<path d="M0 0 C0 0.66 0 1.32 0 2 C-1.58367747 1.85795259 -3.16693318 1.71119847 -4.75 1.5625 C-6.07257813 1.44068359 -6.07257813 1.44068359 -7.421875 1.31640625 C-10 1 -10 1 -11.859375 0.48828125 C-21.47936551 -1.70605965 -30.89968401 -0.43601898 -39.64453125 3.90625 C-42 5 -42 5 -45 5 C-45.45075211 1.12353183 -45.36790082 -0.50563328 -43 -3.6875 C-29.18449944 -14.33694835 -13.4391369 -7.89485418 0 0 Z " fill="#772F19" transform="translate(339,283)"/>
<path d="M0 0 C-1.4960096 3.80802445 -3.66063151 5.69424557 -7 8 C-8.32594105 8.36162029 -9.65938457 8.69728039 -11 9 C-13.2072358 10.48800372 -13.2072358 10.48800372 -15 12 C-15.495 10.515 -15.495 10.515 -16 9 C-20.92837515 6.53581242 -27.81126664 7.44853063 -32.9921875 8.75390625 C-38.33523992 10.6409954 -43.19393737 13.00956103 -48 16 C-45.21369371 9.58305218 -38.87610681 4.71925528 -32.5859375 1.84765625 C-23.11526019 -1.25678027 -9.34382622 -4.67191311 0 0 Z " fill="#FAEFAB" transform="translate(263,394)"/>
<path d="M0 0 C2.98123057 0.20560211 3.99103128 0.99103128 6.125 3.125 C10.29813118 9.52380114 10.78237992 16.54437954 10 24 C8.82755696 26.54878922 7.93702622 28.06297378 6 30 C3.32941149 30.14115161 0.67567762 30.04247107 -2 30 C-1.98259766 28.53240234 -1.98259766 28.53240234 -1.96484375 27.03515625 C-1.86261228 18.43350747 -1.86261228 18.43350747 -2.625 9.875 C-2.99320246 6.0702412 -2.84796834 4.28527704 -1 1 C-0.67 0.67 -0.34 0.34 0 0 Z " fill="#FBCE48" transform="translate(554,357)"/>
<path d="M0 0 C-0.33 1.65 -0.66 3.3 -1 5 C-1.495 4.01 -1.495 4.01 -2 3 C-2.62261719 3.24234375 -3.24523437 3.4846875 -3.88671875 3.734375 C-13.20255771 7.11250349 -22.69964158 8.79023115 -32.42822266 10.53149414 C-62.92067491 15.99070585 -62.92067491 15.99070585 -87 34 C-89.25064699 35.59649553 -91.53898528 36.72216543 -94 38 C-87.88089775 24.89178097 -74.19900564 18.12832376 -61.1796875 13.3671875 C-47.7243899 8.78294627 -33.46668321 6.38017779 -19.52587891 3.78686523 C-14.99878983 2.92185607 -10.74206558 2.00932463 -6.45703125 0.2890625 C-3 -1 -3 -1 0 0 Z " fill="#CD7526" transform="translate(347,384)"/>
<path d="M0 0 C20.53191489 1 20.53191489 1 30 2 C30.33 3.65 30.66 5.3 31 7 C24.86416374 11.48963629 18.76641084 13.95376975 11 13 C6.03908495 10.78088458 2.16564722 8.14341214 0 3 C0 2.01 0 1.02 0 0 Z " fill="#FACB41" transform="translate(506,310)"/>
<path d="M0 0 C3.9357007 0.7028037 5.10984889 1.49941778 7.5 4.625 C9.03597454 7.69694908 8.7265038 10.22744293 8.5 13.625 C6.19767442 19.27616279 6.19767442 19.27616279 3.5 20.625 C0.0625 20.9375 0.0625 20.9375 -3.5 20.625 C-6.60451166 17.62397206 -7.41052879 14.57339483 -7.8125 10.3125 C-7.32930352 4.6107815 -5.91246113 1.05579663 0 0 Z " fill="#FAFAFB" transform="translate(223.5,347.375)"/>
<path d="M0 0 C4.43984764 1.50022249 6.27606078 4.96037805 8.625 8.75 C9.01945313 9.3584375 9.41390625 9.966875 9.8203125 10.59375 C14.47312421 17.95022257 15.29979466 24.08809283 15.1875 32.6875 C15.18685547 33.63689453 15.18621094 34.58628906 15.18554688 35.56445312 C15.14087865 42.57736404 15.14087865 42.57736404 14 46 C13.34 46 12.68 46 12 46 C10.99619455 42.04262161 9.99760064 38.08394668 9 34.125 C8.71382812 32.99707031 8.42765625 31.86914062 8.1328125 30.70703125 C7.86210938 29.63066406 7.59140625 28.55429687 7.3125 27.4453125 C6.93544922 25.95281982 6.93544922 25.95281982 6.55078125 24.43017578 C6 22 6 22 6 20 C5.34 20 4.68 20 4 20 C3.66104344 18.27192682 3.32908475 16.54248026 3 14.8125 C2.814375 13.84957031 2.62875 12.88664063 2.4375 11.89453125 C2.03122388 9.2065794 1.92066428 6.71228981 2 4 C1.34 4 0.68 4 0 4 C0 2.68 0 1.36 0 0 Z " fill="#FBD65D" transform="translate(590,240)"/>
<path d="M0 0 C1.47347612 4.42042835 0.53121053 7.66157016 -1 12 C-8.59683296 26.41719404 -20.72879344 39.97096736 -33.2109375 50.3984375 C-36.1192813 53.00197671 -38.49828742 56.01014839 -41 59 C-41.33 59 -41.66 59 -42 59 C-42.53694935 55.33532069 -42.12274753 54.16561891 -39.875 51.1328125 C-38.93035427 50.11730163 -37.9711575 49.11518736 -37 48.125 C-36.24831543 47.33174316 -36.24831543 47.33174316 -35.48144531 46.52246094 C-32.10186137 43.00035141 -28.53869433 39.77075226 -24.8203125 36.609375 C-13.85210871 26.91216478 -6.0335342 13.17076369 0 0 Z " fill="#CE631F" transform="translate(665,306)"/>
<path d="M0 0 C5.32324132 0.87266251 5.32324132 0.87266251 8 2 C9.625 4.8125 9.625 4.8125 11 8 C14.17312446 11.39450524 16.47324581 13.30942534 21.125 13.5 C25.03217782 12.99584802 26.13295575 12.4574665 29 10 C30.32 10 31.64 10 33 10 C33.66 9.34 34.32 8.68 35 8 C34.9158797 10.86009035 34.43181261 12.54648827 32.4453125 14.6328125 C27.45177865 18.9218644 24.8091234 20.4464999 18 20 C10.27689409 17.42563136 5.78222973 13.94204334 2.125 6.8125 C0 2.35534591 0 2.35534591 0 0 Z " fill="#395BA1" transform="translate(218,366)"/>
<path d="M0 0 C0 3.44451058 -0.54209463 4.11181874 -2.52734375 6.80859375 C-3.33812378 7.92028931 -3.33812378 7.92028931 -4.1652832 9.05444336 C-4.75011475 9.84085205 -5.33494629 10.62726074 -5.9375 11.4375 C-6.53071045 12.24646729 -7.1239209 13.05543457 -7.73510742 13.88891602 C-9.48166459 16.26564254 -11.23826581 18.63450805 -13 21 C-13.45213867 21.60714844 -13.90427734 22.21429688 -14.37011719 22.83984375 C-16.23107598 25.33308011 -18.10054172 27.8198194 -19.97265625 30.3046875 C-24.55975188 36.40313834 -29.05145618 42.51834419 -33.21484375 48.9140625 C-33.78686523 49.781521 -34.35888672 50.64897949 -34.94824219 51.54272461 C-36.09504924 53.28659895 -37.22761967 55.03993106 -38.34472656 56.80297852 C-38.87420898 57.60405029 -39.40369141 58.40512207 -39.94921875 59.23046875 C-40.41674561 59.95645264 -40.88427246 60.68243652 -41.3659668 61.43041992 C-43 63 -43 63 -45.69067383 63.2355957 C-46.45275146 63.15784912 -47.2148291 63.08010254 -48 63 C-47.13375 62.01 -46.2675 61.02 -45.375 60 C-36.80443933 50.45424074 -36.80443933 50.45424074 -31.2421875 39.2421875 C-29.66175208 35.11715166 -27.31237384 32.49058662 -24.375 29.25 C-23.27997902 28.00893276 -22.18623158 26.7667407 -21.09375 25.5234375 C-20.56136719 24.92112305 -20.02898438 24.31880859 -19.48046875 23.69824219 C-17.54352588 21.47637962 -15.70155208 19.18813358 -13.875 16.875 C-9.35909264 11.15866157 -4.68025789 5.58178298 0 0 Z " fill="#FAC93A" transform="translate(626,340)"/>
<path d="M0 0 C1.32 0.33 2.64 0.66 4 1 C4 2.65 4 4.3 4 6 C4.66 6 5.32 6 6 6 C7.38529821 11.45461169 8.2396943 16.36718401 8 22 C8.66 22 9.32 22 10 22 C12.92133322 30.92711978 15.17743417 39.79051963 17 49 C15.02 49.495 15.02 49.495 13 50 C8.97413677 39.43466349 6.11613072 29.28170757 4.53515625 18.08203125 C3.91950194 14.53640167 2.89566905 11.31667991 1.6640625 7.9453125 C0.77478531 5.34025344 0.34929236 2.72448043 0 0 Z " fill="#FBCF4A" transform="translate(586,238)"/>
<path d="M0 0 C1.54300781 -0.03867187 1.54300781 -0.03867187 3.1171875 -0.078125 C6.53031414 0.29421609 8.40562465 1.18287335 11.125 3.25 C11.125 3.91 11.125 4.57 11.125 5.25 C10.361875 5.085 9.59875 4.92 8.8125 4.75 C-1.33541014 3.30855852 -1.33541014 3.30855852 -10.6875 6.8125 C-23.43561068 16.56639251 -28.68566585 31.97054634 -34.875 46.25 C-35.535 46.25 -36.195 46.25 -36.875 46.25 C-36.39010553 39.80531168 -34.11234878 34.71660234 -31.3125 28.9375 C-30.86140869 28.00341309 -30.41031738 27.06932617 -29.94555664 26.10693359 C-24.80291253 15.73086613 -18.71802527 7.59846008 -8.875 1.25 C-5.71490467 0.19663489 -3.3196864 0.04967112 0 0 Z " fill="#D0721A" transform="translate(366.875,303.75)"/>
<path d="M0 0 C-0.33 0.66 -0.66 1.32 -1 2 C-1.56283691 1.98428955 -2.12567383 1.9685791 -2.70556641 1.95239258 C-13.10793741 1.7011839 -22.86476685 1.61905606 -32.9921875 4.24609375 C-36.31102897 5.07795921 -39.60876349 5.56228401 -43 6 C-43.33 5.01 -43.66 4.02 -44 3 C-42.23002526 2.18563132 -40.45898848 1.3735706 -38.6875 0.5625 C-37.70136719 0.11003906 -36.71523438 -0.34242188 -35.69921875 -0.80859375 C-24.61043787 -5.70306288 -11.29622804 -2.96525986 0 0 Z " fill="#E3A412" transform="translate(339,285)"/>
<path d="M0 0 C0.66 0.33 1.32 0.66 2 1 C0.19260406 3.00821772 -1.37334475 4.2121277 -3.75 5.5625 C-11.71632683 10.79411762 -15.32635048 20.26497113 -18 29 C-18.66 29 -19.32 29 -20 29 C-19.50341703 23.33895411 -18.45489316 19.12325529 -16 14 C-23.22172788 14.8427771 -28.20060644 16.36039431 -33 22 C-34.54308228 24.2848607 -35.76232436 26.52464872 -37 29 C-37.99 29 -38.98 29 -40 29 C-38.09550835 22.90562671 -34.14039576 17.09889113 -28.8125 13.5 C-25.5883562 11.81286488 -23.08560497 11.99493645 -19.5 12.25 C-15.38778892 12.45176981 -15.38778892 12.45176981 -11.984375 10.375 C-10.83075379 8.9615542 -9.71144379 7.51938038 -8.62890625 6.05078125 C-6.15951408 2.94183427 -3.59535522 1.62143471 0 0 Z " fill="#771416" transform="translate(332,433)"/>
<path d="M0 0 C-1.175625 0.515625 -2.35125 1.03125 -3.5625 1.5625 C-9.19142854 4.38196332 -13.65099658 8.24334083 -16.4375 13.9375 C-16.7159375 14.9584375 -16.7159375 14.9584375 -17 16 C-16.34 16.33 -15.68 16.66 -15 17 C-16.66666667 20.33333333 -18.33333333 23.66666667 -20 27 C-20.32226562 27.73992187 -20.64453125 28.47984375 -20.9765625 29.2421875 C-22 31 -22 31 -25 32.375 C-28.28349948 33.75343241 -28.28349948 33.75343241 -29.375 37.1875 C-29.58125 38.115625 -29.7875 39.04375 -30 40 C-30.66 40 -31.32 40 -32 40 C-29.96694793 26.28993092 -20.40826753 11.35413265 -10.11328125 2.55859375 C-6.47133639 -0.12742473 -4.45892409 -1.59247289 0 0 Z " fill="#F9CE45" transform="translate(365,308)"/>
<path d="M0 0 C0.495 1.485 0.495 1.485 1 3 C-0.76315337 4.76315337 -3.20563491 4.51108513 -5.57421875 4.84814453 C-19.14452176 6.84970663 -27.75038029 11.72264476 -37 22 C-37.66 21.67 -38.32 21.34 -39 21 C-37.33248852 17.05860922 -34.77289351 14.2107188 -32 11 C-34.97 10.01 -37.94 9.02 -41 8 C-40.34 6.68 -39.68 5.36 -39 4 C-38.49210938 4.30035156 -37.98421875 4.60070312 -37.4609375 4.91015625 C-34.16277548 6.73217459 -31.8181593 8 -28 8 C-24.85682925 7.05900993 -24.85682925 7.05900993 -21.6875 5.125 C-15.13463356 1.59752376 -7.2650604 1.08975906 0 0 Z " fill="#CC762A" transform="translate(250,389)"/>
<path d="M0 0 C0.33 0 0.66 0 1 0 C0.88140625 0.87140625 0.7628125 1.7428125 0.640625 2.640625 C-0.51087217 13.28045882 0.69810741 21.68833799 6.9375 30.5625 C10.3303288 34.6817531 13.76388123 36.93373581 19 38 C20.58211573 38.06548492 22.16670081 38.08578381 23.75 38.0625 C24.54921875 38.05347656 25.3484375 38.04445313 26.171875 38.03515625 C26.77515625 38.02355469 27.3784375 38.01195312 28 38 C27 41 27 41 25 42 C17.49766047 42.93779244 12.96194313 40.46888311 7 36 C0.80367519 30.07308062 -2.58230138 21.32565746 -3.25 12.8125 C-2.94593254 8.17547124 -1.6441768 4.3159641 0 0 Z " fill="#2B3062" transform="translate(217,347)"/>
<path d="M0 0 C0.66 0 1.32 0 2 0 C5.11395213 7.50684888 6.78264767 15.30882193 3.8125 23.125 C1.58981306 25.42433132 0.09079084 25.50425941 -3 26 C-2.69484916 21.85359091 -2.37965489 17.70800682 -2.0625 13.5625 C-1.97548828 12.37849609 -1.88847656 11.19449219 -1.79882812 9.97460938 C-1.71181641 8.84990234 -1.62480469 7.72519531 -1.53515625 6.56640625 C-1.456604 5.52427979 -1.37805176 4.48215332 -1.29711914 3.40844727 C-1 1 -1 1 0 0 Z " fill="#FBDD6F" transform="translate(559,361)"/>
<path d="M0 0 C1.71032515 0.9616286 3.36498158 2.02088083 5.0078125 3.09375 C5.0078125 3.75375 5.0078125 4.41375 5.0078125 5.09375 C-0.89203066 6.7581553 -6.37785704 7.47975337 -12.4921875 7.71875 C-13.31460938 7.75742187 -14.13703125 7.79609375 -14.984375 7.8359375 C-16.9866576 7.92906692 -18.98939012 8.01243985 -20.9921875 8.09375 C-16.05897459 1.49790214 -8.51714075 -3.87446403 0 0 Z " fill="#FBDD72" transform="translate(546.9921875,277.90625)"/>
<path d="M0 0 C0.33 0.66 0.66 1.32 1 2 C-4.13340619 13.21195215 -13.24287927 26.37724943 -23 34 C-23.66 34 -24.32 34 -25 34 C-23.57041192 29.86171871 -21.54733458 26.82948129 -18.875 23.375 C-18.07320312 22.32957031 -17.27140625 21.28414063 -16.4453125 20.20703125 C-16.03700195 19.6754541 -15.62869141 19.14387695 -15.20800781 18.59619141 C-13.33602237 16.1226585 -11.5487081 13.5895823 -9.75 11.0625 C-7.06594138 7.34982011 -4.38679265 4.07890241 -1 1 C-0.67 0.67 -0.34 0.34 0 0 Z " fill="#FCE382" transform="translate(661,312)"/>
<path d="M0 0 C0.33 0 0.66 0 1 0 C2.94386763 8.01845399 1.55487158 14.59450454 -0.75 22.3125 C-1.00265625 23.19873047 -1.2553125 24.08496094 -1.515625 24.99804688 C-2.84799935 29.56475997 -4.31288708 34.07725248 -5.953125 38.54296875 C-6.24864258 39.35145264 -6.54416016 40.15993652 -6.84863281 40.99291992 C-8.23081925 43.40236748 -9.44664594 44.01601966 -12 45 C-11.81824219 44.46125244 -11.63648438 43.92250488 -11.44921875 43.36743164 C-6.65255523 29.07429679 -2.37395448 14.91010008 0 0 Z " fill="#C45D16" transform="translate(356,395)"/>
<path d="M0 0 C3.07542758 0.31596859 4.61550062 0.61875909 6.84375 2.828125 C13.4148678 12.436835 18.16067665 22.95346687 18.09765625 34.73828125 C18.09443359 35.80498047 18.09121094 36.87167969 18.08789062 37.97070312 C18.07951172 39.07349609 18.07113281 40.17628906 18.0625 41.3125 C18.05798828 42.43462891 18.05347656 43.55675781 18.04882812 44.71289062 C18.03707313 47.4753151 18.02064077 50.23762998 18 53 C17.67 53 17.34 53 17 53 C16.94054199 52.17145508 16.94054199 52.17145508 16.87988281 51.32617188 C15.42826629 31.96593825 13.42257717 15.0017039 0 0 Z " fill="#CF6222" transform="translate(593,239)"/>
<path d="M0 0 C4.70722542 4.03476464 7.07020827 9.21062481 9 15 C9.0806622 16.48123547 9.10761193 17.96582204 9.09765625 19.44921875 C9.09443359 20.29677734 9.09121094 21.14433594 9.08789062 22.01757812 C9.07951172 22.89865234 9.07113281 23.77972656 9.0625 24.6875 C9.05798828 25.58017578 9.05347656 26.47285156 9.04882812 27.39257812 C9.03704983 29.59511987 9.02060164 31.79752599 9 34 C6.73771699 30.60657549 5.97354566 27.40318766 5.0625 23.5 C4.71595112 22.05702527 4.36828927 20.61431739 4.01953125 19.171875 C3.8488916 18.46353516 3.67825195 17.75519531 3.50244141 17.02539062 C2.60345695 13.40149605 1.56178994 9.81804639 0.515625 6.234375 C0 4 0 4 0 0 Z " fill="#FCDF78" transform="translate(596,247)"/>
<path d="M0 0 C0 0.66 0 1.32 0 2 C-1.17175781 2.4846875 -2.34351563 2.969375 -3.55078125 3.46875 C-19.11398565 9.69784825 -19.11398565 9.69784825 -31 21 C-33.24820156 22.52084223 -35.60330882 23.71288807 -38 25 C-32.00174308 12.15065342 -19.10067577 5.98589611 -6.55859375 0.8125 C-4 0 -4 0 0 0 Z " fill="#CE6F1C" transform="translate(291,397)"/>
<path d="M0 0 C-0.07836311 2.74270891 -0.46931694 4.45758914 -2.4140625 6.4453125 C-6.29389408 9.43637209 -8.96388983 10.61415978 -14 10 C-14.33 8.35 -14.66 6.7 -15 5 C-9.67113839 0.55928199 -6.92088947 -0.60709557 0 0 Z " fill="#F08D64" transform="translate(336,440)"/>
<path d="M0 0 C1.11375 0.3403125 1.11375 0.3403125 2.25 0.6875 C0.7539904 4.49552445 -1.41063151 6.38174557 -4.75 8.6875 C-6.07594105 9.04912029 -7.40938457 9.38478039 -8.75 9.6875 C-10.9572358 11.17550372 -10.9572358 11.17550372 -12.75 12.6875 C-13.08 11.6975 -13.41 10.7075 -13.75 9.6875 C-17.05 9.0275 -20.35 8.3675 -23.75 7.6875 C-23.75 7.3575 -23.75 7.0275 -23.75 6.6875 C-22.615625 6.584375 -21.48125 6.48125 -20.3125 6.375 C-14.73045025 5.67104701 -8.99884752 4.43660363 -4.5 0.9375 C-2.75 -0.3125 -2.75 -0.3125 0 0 Z " fill="#FBE072" transform="translate(260.75,393.3125)"/>
<path d="M0 0 C0.66 0.66 1.32 1.32 2 2 C-5.24783242 6.34869945 -11.74177193 8.23391815 -20.09765625 9.53515625 C-22.74851284 9.95972144 -25.37160737 10.45503052 -28 11 C-26 8 -26 8 -23.9765625 7.3046875 C-22.81253906 7.09199219 -22.81253906 7.09199219 -21.625 6.875 C-20.46871094 6.65457031 -20.46871094 6.65457031 -19.2890625 6.4296875 C-18.15597656 6.21699219 -18.15597656 6.21699219 -17 6 C-15.66428816 5.67632921 -14.33005602 5.34617896 -13 5 C-13 3.68 -13 2.36 -13 1 C-8.63182208 0.30109153 -4.426216 -0.30880577 0 0 Z " fill="#FBE990" transform="translate(256,392)"/>
<path d="M0 0 C3.46204981 1.89432914 5.76912284 3.80669063 8.3125 6.8125 C8.3125 7.4725 8.3125 8.1325 8.3125 8.8125 C5.23596162 7.78698721 4.50453004 7.00453004 2.3125 4.8125 C-4.94212379 2.39429207 -12.40350994 4.31285499 -19.6875 5.8125 C-18.39639977 2.89244153 -17.81315442 1.89626961 -15.0625 0.0625 C-9.53686282 -1.98403229 -5.4754423 -1.76327803 0 0 Z " fill="#36529B" transform="translate(240.6875,342.1875)"/>
<path d="M0 0 C5.32324132 0.87266251 5.32324132 0.87266251 8 2 C9.625 4.8125 9.625 4.8125 11 8 C13.68449375 10.75198102 16.80769594 12.8717973 20 15 C14.42941207 15.59261574 10.83951744 14.50499844 6.0234375 11.63671875 C2.81223039 9.03923655 1.2308021 5.89897447 0 2 C0 1.34 0 0.68 0 0 Z " fill="#447AB4" transform="translate(218,366)"/>
<path d="M0 0 C2.93756119 -0.0269501 5.87487555 -0.04681474 8.8125 -0.0625 C9.64587891 -0.07087891 10.47925781 -0.07925781 11.33789062 -0.08789062 C12.14033203 -0.09111328 12.94277344 -0.09433594 13.76953125 -0.09765625 C14.87711792 -0.10551147 14.87711792 -0.10551147 16.00708008 -0.11352539 C18 0 18 0 21 1 C21 1.99 21 2.98 21 4 C16.18005343 5.5738601 12.1306917 6.55971182 7 6 C1.46153846 2.92307692 1.46153846 2.92307692 0 0 Z " fill="#FBDD6E" transform="translate(510,317)"/>
<path d="M0 0 C0.33 0.99 0.66 1.98 1 3 C1.66 3 2.32 3 3 3 C4.33203125 4.828125 4.33203125 4.828125 5.8125 7.25 C8.92175733 12.08072419 12.24629003 14.83086002 17 18 C19.50896686 18.45601261 19.50896686 18.45601261 22.1875 18.625 C23.08855469 18.69976562 23.98960937 18.77453125 24.91796875 18.8515625 C25.60503906 18.90054687 26.29210937 18.94953125 27 19 C27 19.33 27 19.66 27 20 C16.26797705 21.97389603 16.26797705 21.97389603 11.34375 19.859375 C5.87122295 15.84868736 1.45107826 10.36214661 -1 4 C-0.6484375 1.69921875 -0.6484375 1.69921875 0 0 Z " fill="#C35B17" transform="translate(272,464)"/>
<path d="M0 0 C2.375 1.8125 2.375 1.8125 4 4 C5.3303125 4.7115625 5.3303125 4.7115625 6.6875 5.4375 C9 7 9 7 9.8125 9.6875 C9.874375 10.450625 9.93625 11.21375 10 12 C9.01 12 8.02 12 7 12 C5.31267723 10.01739574 3.64633943 8.0167658 2 6 C-1.71256344 4.76247885 -4.75596453 5.10789654 -8.625 5.35546875 C-11 5 -11 5 -12.8125 2.98828125 C-13.204375 2.33214844 -13.59625 1.67601562 -14 1 C-9.39190752 -0.53603083 -4.8126091 -0.53715396 0 0 Z " fill="#4A92C7" transform="translate(241,347)"/>
<path d="M0 0 C3.92862057 1.27414721 5.90532822 2.4091341 8 6 C10.09836952 10.85938204 10.33600542 14.79191595 10 20 C8.984375 22.2421875 8.984375 22.2421875 8 24 C7.86722656 22.97519531 7.73445312 21.95039063 7.59765625 20.89453125 C7.41935912 19.5338426 7.24096877 18.17316615 7.0625 16.8125 C6.93198242 15.80219727 6.93198242 15.80219727 6.79882812 14.77148438 C6.32174523 11.14918834 5.76987965 7.57196415 5 4 C0.99027798 7.67557852 -1.45335415 11.18966896 -4 16 C-5.13529002 12.65508511 -4.86633118 10.73934469 -3.6875 7.4375 C-3.42324219 6.67308594 -3.15898438 5.90867187 -2.88671875 5.12109375 C-2 3 -2 3 0 0 Z " fill="#F6B41B" transform="translate(657,282)"/>
<path d="M0 0 C0.495 0.99 0.495 0.99 1 2 C-7.5471274 14.67780599 -16.13625373 25.75514281 -32 29 C-31.505 27.515 -31.505 27.515 -31 26 C-29.03125 25.078125 -29.03125 25.078125 -26.5 24.25 C-14.36674296 19.59261663 -7.62628161 10.02643115 0 0 Z " fill="#F2A51B" transform="translate(611,377)"/>
<path d="M0 0 C1.46052029 4.38156086 0.49735819 7.69678142 -1 12 C-5.55955335 20.51985112 -5.55955335 20.51985112 -10 22 C-11.8929807 24.08744972 -11.8929807 24.08744972 -13.6875 26.5625 C-14.31011719 27.38878906 -14.93273437 28.21507812 -15.57421875 29.06640625 C-16.04472656 29.70449219 -16.51523437 30.34257812 -17 31 C-17 26.89064715 -14.83201955 24.81919133 -12.4375 21.6875 C-7.34500733 14.83271054 -3.55953152 7.75553557 0 0 Z " fill="#E18320" transform="translate(665,306)"/>
<path d="M0 0 C2.39763185 2.39763185 2.34280586 3.33273498 2.625 6.625 C2.69976563 7.44226563 2.77453125 8.25953125 2.8515625 9.1015625 C2.90054688 9.72804688 2.94953125 10.35453125 3 11 C3.66 11 4.32 11 5 11 C5.69986698 14.43510236 6.38274929 17.87336524 7.0625 21.3125 C7.26166016 22.28896484 7.46082031 23.26542969 7.66601562 24.27148438 C7.84970703 25.20927734 8.03339844 26.14707031 8.22265625 27.11328125 C8.48187866 28.40939331 8.48187866 28.40939331 8.74633789 29.73168945 C9 32 9 32 8 35 C3.52828391 23.26458265 0.58109886 12.60383384 0 0 Z " fill="#FAC839" transform="translate(591,253)"/>
<path d="M0 0 C7.29078275 2.29138887 10.9341747 7.81889904 14.640625 14.15234375 C16.90475813 18.89531229 17.99376676 23.86291451 19 29 C18.01 29 17.02 29 16 29 C15.8040625 28.20078125 15.608125 27.4015625 15.40625 26.578125 C12.56718077 16.151888 7.89034102 7.48525655 0 0 Z " fill="#F29C1D" transform="translate(589,238)"/>
<path d="M0 0 C0.66 0 1.32 0 2 0 C2.57733612 8.41627763 2.64204439 14.43647558 -3 21 C-3.680625 21.804375 -4.36125 22.60875 -5.0625 23.4375 C-7.08323984 25.0671289 -8.4508325 25.63583321 -11 26 C-10.875 24.3125 -10.875 24.3125 -10 22 C-8.50213401 20.79519475 -7.00346878 19.59132422 -5.49609375 18.3984375 C-0.45325981 13.68477026 -0.37628058 6.44867056 0 0 Z " fill="#262D5F" transform="translate(255,362)"/>
<path d="M0 0 C-1.85546875 0.81380208 -3.7109375 1.62760417 -5.56640625 2.44140625 C-12.37949795 6.804847 -16.74287635 13.16692489 -20.9375 19.9375 C-21.67709961 21.10635742 -21.67709961 21.10635742 -22.43164062 22.29882812 C-23.62935555 24.19424106 -24.81853054 26.09443516 -26 28 C-26.33 27.34 -26.66 26.68 -27 26 C-23.64198564 16.74797086 -11.8025077 -3.54075231 0 0 Z " fill="#F8C942" transform="translate(365,308)"/>
<path d="M0 0 C2.40880452 3.61320678 2.5538242 4.7276419 2 9 C-0.43996881 14.62604379 -3.78949411 19.5618992 -8 24 C-8.66 24 -9.32 24 -10 24 C-9.361203 20.58788917 -8.0172426 18.26514169 -6.125 15.375 C-3.07254097 10.44410464 -1.36153194 5.61333345 0 0 Z " fill="#8C572D" transform="translate(261,368)"/>
<path d="M0 0 C3.29714793 0.32971479 4.6226839 0.6226839 7 3 C6.625 6.125 6.625 6.125 6 9 C3.6875 9.6875 3.6875 9.6875 1 10 C-0.8125 8.875 -0.8125 8.875 -2 7 C-2.3125 4.4375 -2.3125 4.4375 -2 2 C-1.34 1.34 -0.68 0.68 0 0 Z " fill="#F3F3F6" transform="translate(246,367)"/>
<path d="M0 0 C3.73024781 0.27877137 7.45888164 0.57527903 11.1875 0.875 C12.24259766 0.95363281 13.29769531 1.03226562 14.38476562 1.11328125 C15.40634766 1.19707031 16.42792969 1.28085937 17.48046875 1.3671875 C18.41785889 1.44050293 19.35524902 1.51381836 20.32104492 1.58935547 C23.12453316 2.01908911 25.41677069 2.84871144 28 4 C27.01 5.485 27.01 5.485 26 7 C25.34 7 24.68 7 24 7 C24 6.34 24 5.68 24 5 C16.74 5 9.48 5 2 5 C1.34 3.35 0.68 1.7 0 0 Z " fill="#FBD559" transform="translate(507,313)"/>
<path d="M0 0 C0.33 0 0.66 0 1 0 C3.64417437 30.21913566 3.64417437 30.21913566 -1 42 C-1.99 42.495 -1.99 42.495 -3 43 C-2.86287598 42.16774902 -2.72575195 41.33549805 -2.58447266 40.47802734 C-1.19234725 31.50087488 -0.59704433 22.71031391 -0.375 13.625 C-0.33666281 12.29164561 -0.29760312 10.9583118 -0.2578125 9.625 C-0.16482103 6.41679423 -0.07897836 3.20857599 0 0 Z " fill="#D57518" transform="translate(608,271)"/>
<path d="M0 0 C1.670625 0.061875 1.670625 0.061875 3.375 0.125 C3.705 1.775 4.035 3.425 4.375 5.125 C2.06177733 7.18119793 0.81576838 8.08399829 -2.3125 8.375 C-4.625 8.125 -4.625 8.125 -5.625 7.125 C-5.8125 4.6875 -5.8125 4.6875 -5.625 2.125 C-3.625 0.125 -3.625 0.125 0 0 Z " fill="#EA6750" transform="translate(304.625,451.875)"/>
<path d="M0 0 C0.99 0.33 1.98 0.66 3 1 C2.67 1.66 2.34 2.32 2 3 C1.79228599 4.54451234 1.63282989 6.09569165 1.5 7.6484375 C1.4175 8.57140625 1.335 9.494375 1.25 10.4453125 C1.1675 11.41210938 1.085 12.37890625 1 13.375 C0.83622394 15.2788967 0.66966073 17.18255617 0.5 19.0859375 C0.4278125 19.9320459 0.355625 20.7781543 0.28125 21.64990234 C0.01906804 23.84066928 -0.41191526 25.87615648 -1 28 C-1.66 28 -2.32 28 -3 28 C-3.210324 22.11092809 -2.79251741 16.45987793 -2.0625 10.625 C-1.97564941 9.92310547 -1.88879883 9.22121094 -1.79931641 8.49804688 C-1.4118178 5.5327156 -0.94831014 2.84493042 0 0 Z " fill="#FCD860" transform="translate(557,359)"/>
<path d="M0 0 C-2.34237193 1.80182456 -4.70319922 3.45501126 -7.1875 5.0625 C-10.05234404 6.70230393 -10.05234404 6.70230393 -11 9 C-13.64860427 9.59355614 -16.29197322 9.74209269 -19 10 C-14.375 5.125 -14.375 5.125 -11 4 C-11 3.34 -11 2.68 -11 2 C-12.65 2 -14.3 2 -16 2 C-16 1.67 -16 1.34 -16 1 C-10.62915894 0.31798844 -5.41499441 -0.11521265 0 0 Z " fill="#F9C329" transform="translate(338,380)"/>
<path d="M0 0 C0.66 0 1.32 0 2 0 C2.33 0.99 2.66 1.98 3 3 C2.01 3.8971875 2.01 3.8971875 1 4.8125 C-3.26167062 9.03732621 -6.55125075 14.11355876 -10 19 C-11 16 -11 16 -10 13.375 C-7.19591383 8.64310458 -3.90661175 3.90661175 0 0 Z " fill="#FAC83A" transform="translate(661,289)"/>
<path d="M0 0 C0.66 0.33 1.32 0.66 2 1 C2 1.66 2 2.32 2 3 C-3.89984316 4.6644053 -9.38566954 5.38600337 -15.5 5.625 C-16.32242188 5.66367187 -17.14484375 5.70234375 -17.9921875 5.7421875 C-19.9944701 5.83531692 -21.99720262 5.91868985 -24 6 C-21.74090844 3.35107306 -20.32982954 2.60110321 -16.875 2.3046875 C-15.69164062 2.19060547 -15.69164062 2.19060547 -14.484375 2.07421875 C-13.25460937 1.97560547 -13.25460937 1.97560547 -12 1.875 C-10.37474862 1.72934068 -8.74973381 1.58101075 -7.125 1.4296875 C-6.04605469 1.34050049 -6.04605469 1.34050049 -4.9453125 1.24951172 C-2.78733694 1.03631562 -2.78733694 1.03631562 0 0 Z " fill="#FBD04C" transform="translate(550,280)"/>
<path d="M0 0 C0 0.99 0 1.98 0 3 C-1 4 -2 5 -3 6 C-3.99518799 7.76565612 -4.98936984 9.53197017 -5.96484375 11.30859375 C-7.33086135 13.54061497 -9.15371752 15.15371752 -11 17 C-11.98307636 18.74416773 -12.96536198 20.48900581 -13.91796875 22.25 C-15.58085362 24.93943113 -17.67599405 26.86966121 -20 29 C-19.43062476 24.72968574 -16.85693235 21.6816143 -14.375 18.3125 C-13.92640625 17.6947168 -13.4778125 17.07693359 -13.015625 16.44042969 C-3.77723085 3.77723085 -3.77723085 3.77723085 0 0 Z " fill="#FCDA65" transform="translate(664,299)"/>
<path d="M0 0 C0 3 0 3 -2.01953125 5.36010742 C-3.40205078 6.71906128 -3.40205078 6.71906128 -4.8125 8.10546875 C-5.30081299 8.5895369 -5.78912598 9.07360504 -6.29223633 9.57234192 C-7.85459826 11.1179014 -9.42706327 12.65271107 -11 14.1875 C-12.06057762 15.23303282 -13.12048229 16.27924873 -14.1796875 17.32617188 C-16.77869434 19.89208902 -19.3868639 22.44846467 -22 25 C-22 20.83991091 -20.29799047 19.76711021 -17.5 16.75 C-17.04802246 16.26200928 -16.59604492 15.77401855 -16.13037109 15.27124023 C-12.83465306 11.7616425 -9.37490936 8.53610788 -5.6953125 5.4375 C-3.68329894 3.73146085 -1.82628533 1.90238055 0 0 Z " fill="#F0A51E" transform="translate(646,337)"/>
<path d="M0 0 C2.64 0 5.28 0 8 0 C8 0.33 8 0.66 8 1 C6.35 1 4.7 1 3 1 C3.2165625 1.6290625 3.433125 2.258125 3.65625 2.90625 C5.48060724 8.51445928 6.32723967 13.10968596 6 19 C1.85081361 12.77622041 0.48425277 7.36398184 0 0 Z " fill="#F5B21B" transform="translate(581,237)"/>
<path d="M0 0 C-0.350625 1.03125 -0.70125 2.0625 -1.0625 3.125 C-2.03112907 7.12866681 -2.34493729 9.1333053 -1 13 C0.87351218 14.87870196 2.88519991 16.38015312 5 18 C5 18.66 5 19.32 5 20 C1.06863911 18.68954637 -1.31206827 17.16791954 -4 14 C-5.18823797 10.43528609 -5.26274852 7.7441664 -5 4 C-2.74358974 0 -2.74358974 0 0 0 Z " fill="#CF641F" transform="translate(500,322)"/>
<path d="M0 0 C0.99 0.33 1.98 0.66 3 1 C3.57293869 10.73995772 3.57293869 10.73995772 0 15 C-0.66 15 -1.32 15 -2 15 C-1.03644647 4.44191344 -1.03644647 4.44191344 0 0 Z " fill="#FCE688" transform="translate(561,371)"/>
<path d="M0 0 C5.41351268 9.96268301 4.21735103 22.02377306 4 33 C3.67 33 3.34 33 3 33 C3 27.39 3 21.78 3 16 C2.34 16 1.68 16 1 16 C0.63409254 14.27327966 0.28277805 12.54346345 -0.0625 10.8125 C-0.35833984 9.36810547 -0.35833984 9.36810547 -0.66015625 7.89453125 C-1.00423947 4.96389138 -0.74164697 2.83692932 0 0 Z " fill="#D67A17" transform="translate(574,263)"/>
<path d="M0 0 C0.33 0.99 0.66 1.98 1 3 C-1.01481734 5.01481734 -4.79076863 4.7214027 -7.5625 5.0625 C-8.27341797 5.15337891 -8.98433594 5.24425781 -9.71679688 5.33789062 C-11.47738403 5.56239503 -13.23863478 5.78168397 -15 6 C-15 5.34 -15 4.68 -15 4 C-15.66 3.67 -16.32 3.34 -17 3 C-11.39 2.01 -5.78 1.02 0 0 Z " fill="#C97A33" transform="translate(250,389)"/>
<path d="M0 0 C1.1171875 1.640625 1.1171875 1.640625 2 4 C1.3203125 6.796875 1.3203125 6.796875 0.125 9.75 C-0.26429688 10.73484375 -0.65359375 11.7196875 -1.0546875 12.734375 C-1.36664062 13.48203125 -1.67859375 14.2296875 -2 15 C-2.99 15 -3.98 15 -5 15 C-4.4941952 10.04311292 -3.73403362 3.73403362 0 0 Z " fill="#D47614" transform="translate(569,379)"/>
<path d="M0 0 C0 0.66 0 1.32 0 2 C-0.51949219 2.23074219 -1.03898438 2.46148437 -1.57421875 2.69921875 C-6.28541042 4.90241929 -9.54373147 7.1116979 -13 11 C-12.92857604 7.92876957 -12.73297493 5.76458571 -10.55078125 3.48828125 C-7.06679344 0.85072866 -4.51433176 -0.68398966 0 0 Z " fill="#292D5F" transform="translate(231,339)"/>
<path d="M0 0 C0.66 0.33 1.32 0.66 2 1 C2.625 4.0625 2.625 4.0625 3 7 C2.01 6.67 1.02 6.34 0 6 C-0.33 11.28 -0.66 16.56 -1 22 C-1.99 22 -2.98 22 -4 22 C-3.7161296 19.45724602 -3.42316578 16.91608446 -3.125 14.375 C-3.04636719 13.66214844 -2.96773437 12.94929688 -2.88671875 12.21484375 C-2.37424854 7.91797815 -1.53115573 4.078793 0 0 Z " fill="#FCE27C" transform="translate(561,365)"/>
<path d="M0 0 C0.703125 1.640625 0.703125 1.640625 1 4 C-0.328125 6.796875 -0.328125 6.796875 -2.25 9.75 C-3.18585937 11.22726562 -3.18585937 11.22726562 -4.140625 12.734375 C-4.75421875 13.48203125 -5.3678125 14.2296875 -6 15 C-6.99 15 -7.98 15 -9 15 C-9 10.9255567 -6.90830751 8.88254967 -4.5 5.8125 C-3.85611328 4.97428711 -3.85611328 4.97428711 -3.19921875 4.11914062 C-2.13921945 2.74114153 -1.07043812 1.36990593 0 0 Z " fill="#D7791C" transform="translate(622,362)"/>
<path d="M0 0 C1.62566606 0.47690204 3.25051311 0.95659666 4.875 1.4375 C5.77992188 1.70433594 6.68484375 1.97117187 7.6171875 2.24609375 C10 3 10 3 12 4 C12 4.66 12 5.32 12 6 C4.69565217 6.36521739 4.69565217 6.36521739 1.5 4.6875 C0 3 0 3 0 0 Z " fill="#FBD04E" transform="translate(500,331)"/>
<path d="M0 0 C4.93247613 -0.55839352 8.06797328 -0.09796044 12 3 C12 3.66 12 4.32 12 5 C10.7625 4.7834375 10.7625 4.7834375 9.5 4.5625 C5.67313722 3.94746848 1.84783293 3.46439363 -2 3 C-1.34 2.01 -0.68 1.02 0 0 Z " fill="#D57D1E" transform="translate(366,304)"/>
<path d="M0 0 C2.39550925 0.66083014 3.69084131 1.45929568 4.93359375 3.6328125 C6.95707849 8.57050254 7.44241723 12.69099319 7 18 C5.98046875 20.234375 5.98046875 20.234375 5 22 C4.89042969 20.99839844 4.78085937 19.99679687 4.66796875 18.96484375 C3.56035963 9.14775383 3.56035963 9.14775383 0 0 Z " fill="#F19C1E" transform="translate(660,284)"/>
<path d="M0 0 C6.93302093 -0.22731216 13.2168636 0.57997892 20 2 C18 4 18 4 15.390625 4.01171875 C13.83601563 3.85123047 13.83601563 3.85123047 12.25 3.6875 C10.64125 3.52507812 10.64125 3.52507812 9 3.359375 C5.97970498 2.99756883 2.98658511 2.58072488 0 2 C0 1.34 0 0.68 0 0 Z " fill="#CF6422" transform="translate(322,242)"/>
<path d="M0 0 C0.66 0.33 1.32 0.66 2 1 C-0.41337795 5.82675589 -3.86062408 8.69984002 -8 12 C-8 7.6863336 -7.82848171 7.29409107 -5.125 4.3125 C-4.59132812 3.71050781 -4.05765625 3.10851562 -3.5078125 2.48828125 C-2 1 -2 1 0 0 Z " fill="#CD7018" transform="translate(220,399)"/>
<path d="M0 0 C1.98 0 3.96 0 6 0 C6.99 2.31 7.98 4.62 9 7 C8.34 7.66 7.68 8.32 7 9 C1.21538462 4.56923077 1.21538462 4.56923077 0.125 1.6875 C0.08375 1.130625 0.0425 0.57375 0 0 Z " fill="#539DCF" transform="translate(220,368)"/>
<path d="M0 0 C0.99 0 1.98 0 3 0 C3 4.95 3 9.9 3 15 C1 14 1 14 0 11 C-0.0685495 9.10529184 -0.08480372 7.2083166 -0.0625 5.3125 C-0.05347656 4.31863281 -0.04445313 3.32476562 -0.03515625 2.30078125 C-0.02355469 1.54152344 -0.01195312 0.78226562 0 0 Z " fill="#FBD251" transform="translate(516,361)"/>
<path d="M0 0 C1.32 0.66 2.64 1.32 4 2 C2.35 4.97 0.7 7.94 -1 11 C-2.32 10.34 -3.64 9.68 -5 9 C-3.35 6.03 -1.7 3.06 0 0 Z " fill="#FBDF64" transform="translate(346,323)"/>
<path d="M0 0 C0.66 0.66 1.32 1.32 2 2 C-5.09705662 3.34495828 -11.7725395 4.24091535 -19 4 C-16.025436 1.025436 -12.50940471 1.19768394 -8.5 0.75 C-7.71496094 0.646875 -6.92992187 0.54375 -6.12109375 0.4375 C-4.08929818 0.20051527 -2.04352763 0.09137725 0 0 Z " fill="#FBD862" transform="translate(548,279)"/>
<path d="M0 0 C-0.99 0.495 -0.99 0.495 -2 1 C-2 1.66 -2 2.32 -2 3 C-3.43344 3.53190541 -4.87195367 4.05015258 -6.3125 4.5625 C-7.51326172 4.99755859 -7.51326172 4.99755859 -8.73828125 5.44140625 C-11 6 -11 6 -14 5 C-9.48881925 0.17770333 -6.5260927 -0.12313382 0 0 Z " fill="#FCF2AC" transform="translate(245,394)"/>
<path d="M0 0 C3.0625 2.4375 3.0625 2.4375 5 5 C5 5.66 5 6.32 5 7 C1.92346162 5.97448721 1.19203004 5.19203004 -1 3 C-6.24118425 1.25293858 -11.68833136 1.67208284 -17 3 C-16 1 -16 1 -13 -0.1875 C-8.57594432 -1.31627141 -4.38987063 -1.29644778 0 0 Z " fill="#3B62A6" transform="translate(244,344)"/>
<path d="M0 0 C1.32 0.33 2.64 0.66 4 1 C4.33 5.62 4.66 10.24 5 15 C2.09907498 11.13209997 1.51380794 9.78152821 0.8125 5.25 C0.65394531 4.26515625 0.49539063 3.2803125 0.33203125 2.265625 C0.22246094 1.51796875 0.11289062 0.7703125 0 0 Z " fill="#FACA3F" transform="translate(586,238)"/>
<path d="M0 0 C7.42857143 -0.28571429 7.42857143 -0.28571429 11 2 C11 2.99 11 3.98 11 5 C10.34 5 9.68 5 9 5 C8.67 5.99 8.34 6.98 8 8 C7.608125 7.401875 7.21625 6.80375 6.8125 6.1875 C4.79134301 3.7481726 2.73432518 2.55191429 0 1 C0 0.67 0 0.34 0 0 Z " fill="#FBE57A" transform="translate(365,307)"/>
<path d="M0 0 C0.66 0.33 1.32 0.66 2 1 C0.35 2.32 -1.3 3.64 -3 5 C-3.66 4.67 -4.32 4.34 -5 4 C-3.35 2.68 -1.7 1.36 0 0 Z M-7 5 C-6.01 5.495 -6.01 5.495 -5 6 C-5.99 6.495 -5.99 6.495 -7 7 C-7 6.34 -7 5.68 -7 5 Z M-9 8 C-8.67 8.66 -8.34 9.32 -8 10 C-7.34 10.33 -6.68 10.66 -6 11 C-8.31 12.32 -10.62 13.64 -13 15 C-11.92598892 12.08482708 -11.22189824 10.22189824 -9 8 Z " fill="#FACA38" transform="translate(266,398)"/>
<path d="M0 0 C0.8125 1.6875 0.8125 1.6875 1 4 C-1.90060578 7.49778933 -5.0226225 9.84085222 -9 12 C-8.375 9.1875 -8.375 9.1875 -7 6 C-3.9375 4.3125 -3.9375 4.3125 -1 3 C-0.67 2.01 -0.34 1.02 0 0 Z " fill="#F9C62D" transform="translate(344,335)"/>
<path d="M0 0 C0.33 1.32 0.66 2.64 1 4 C-5.89715536 9.88183807 -5.89715536 9.88183807 -10.5 10.375 C-11.325 10.25125 -12.15 10.1275 -13 10 C-5.5 5 -5.5 5 -3 5 C-3 4.34 -3 3.68 -3 3 C-2.01 3 -1.02 3 0 3 C0 2.01 0 1.02 0 0 Z " fill="#E64138" transform="translate(335,440)"/>
<path d="M0 0 C0.80566406 0.07863281 1.61132812 0.15726562 2.44140625 0.23828125 C3.42947266 0.46064453 3.42947266 0.46064453 4.4375 0.6875 C4.7675 1.3475 5.0975 2.0075 5.4375 2.6875 C2.38766004 4.21241998 -0.2048369 3.92312548 -3.5625 3.6875 C-5.5 2.1875 -5.5 2.1875 -6.5625 0.6875 C-4.07849398 -0.55450301 -2.74042364 -0.29471651 0 0 Z " fill="#FCE482" transform="translate(520.5625,319.3125)"/>
<path d="M0 0 C0.99 0.33 1.98 0.66 3 1 C2.26418258 2.1549921 1.51069961 3.29874185 0.75 4.4375 C0.33234375 5.07558594 -0.0853125 5.71367187 -0.515625 6.37109375 C-2.27248877 8.29902057 -3.46089803 8.61479436 -6 9 C-5.52797514 4.75177626 -3.03344482 2.80010291 0 0 Z " fill="#FBEA87" transform="translate(353,316)"/>
<path d="M0 0 C0 0.66 0 1.32 0 2 C-3.50147041 3.1671568 -6.32670036 3.13357453 -10 3 C-10.66 2.67 -11.32 2.34 -12 2 C-12 1.34 -12 0.68 -12 0 C-10.37585622 -0.19477739 -8.75063577 -0.38059458 -7.125 -0.5625 C-6.22007812 -0.66691406 -5.31515625 -0.77132813 -4.3828125 -0.87890625 C-2 -1 -2 -1 0 0 Z " fill="#CF7017" transform="translate(247,432)"/>
<path d="M0 0 C3.3 1.65 6.6 3.3 10 5 C10 5.66 10 6.32 10 7 C5.44262737 6.56179109 2.42346555 6.14958831 -1 3 C-0.67 2.01 -0.34 1.02 0 0 Z " fill="#855027" transform="translate(210,393)"/>
<path d="M0 0 C0.66 0.66 1.32 1.32 2 2 C-1.63 2.66 -5.26 3.32 -9 4 C-9.33 3.01 -9.66 2.02 -10 1 C-3.375 -1.125 -3.375 -1.125 0 0 Z " fill="#CF7E33" transform="translate(300,395)"/>
<path d="M0 0 C0.33 0 0.66 0 1 0 C0.9278125 0.97582031 0.855625 1.95164062 0.78125 2.95703125 C0.6884375 4.22933594 0.595625 5.50164062 0.5 6.8125 C0.4071875 8.07707031 0.314375 9.34164063 0.21875 10.64453125 C0.08085219 12.75978517 0 14.88025592 0 17 C-0.99 16.67 -1.98 16.34 -3 16 C-3.37851209 10.06997733 -2.10575375 5.52760359 0 0 Z " fill="#59527B" transform="translate(217,347)"/>
<path d="M0 0 C0.226875 0.598125 0.45375 1.19625 0.6875 1.8125 C1.89660151 4.21911415 1.89660151 4.21911415 4.625 5.5625 C5.40875 6.036875 6.1925 6.51125 7 7 C7 7.99 7 8.98 7 10 C2.58110387 8.64978174 0.65654657 6.73884332 -2 3 C-1 1 -1 1 0 0 Z " fill="#F3A41B" transform="translate(499,330)"/>
<path d="M0 0 C0 0.99 0 1.98 0 3 C-6.02596573 4.0712828 -11.88909517 4.09945415 -18 4 C-18 3.67 -18 3.34 -18 3 C-17.32453125 2.95101562 -16.6490625 2.90203125 -15.953125 2.8515625 C-15.06109375 2.77679687 -14.1690625 2.70203125 -13.25 2.625 C-12.36828125 2.55539062 -11.4865625 2.48578125 -10.578125 2.4140625 C-8.00691324 2.13321917 -8.00691324 2.13321917 -5.921875 0.9609375 C-4 0 -4 0 0 0 Z " fill="#D25D2F" transform="translate(333,563)"/>
<path d="M0 0 C0.66 0.66 1.32 1.32 2 2 C-0.97 6.95 -0.97 6.95 -4 12 C-5.22489534 7.10041866 -4.24341865 5.40374773 -2 1 C-1.34 0.67 -0.68 0.34 0 0 Z " fill="#1C160D" transform="translate(316,331)"/>
<path d="M0 0 C-2 4 -4 8 -6 12 C-6.33 12 -6.66 12 -7 12 C-6.51058824 4.65882353 -6.51058824 4.65882353 -4.0625 1.5 C-2 0 -2 0 0 0 Z " fill="#F2A518" transform="translate(256,416)"/>
<path d="M0 0 C0.33 0.99 0.66 1.98 1 3 C-0.28432364 5.56864728 -1.36634751 5.946539 -4 7 C-5.32 7 -6.64 7 -8 7 C-7.34 5.35 -6.68 3.7 -6 2 C-4.35 2 -2.7 2 -1 2 C-0.67 1.34 -0.34 0.68 0 0 Z " fill="#4262A2" transform="translate(252,374)"/>
<path d="M0 0 C0.56332031 0.22042969 1.12664062 0.44085938 1.70703125 0.66796875 C0.51078125 1.22484375 -0.68546875 1.78171875 -1.91796875 2.35546875 C-5.91368625 4.33910786 -8.98481551 6.69063083 -12.29296875 9.66796875 C-11.93471314 6.88086157 -11.48760663 5.84365608 -9.3671875 3.9296875 C-8.57957031 3.41019531 -7.79195313 2.89070313 -6.98046875 2.35546875 C-6.20058594 1.82308594 -5.42070312 1.29070312 -4.6171875 0.7421875 C-2.29296875 -0.33203125 -2.29296875 -0.33203125 0 0 Z " fill="#F8CD51" transform="translate(363.29296875,307.33203125)"/>
<path d="M0 0 C5 2 5 2 10 4 C10 4.33 10 4.66 10 5 C6.04 4.67 2.08 4.34 -2 4 C-1.34 2.68 -0.68 1.36 0 0 Z " fill="#F7BB1B" transform="translate(508,304)"/>
<path d="M0 0 C1.4540625 0.0309375 1.4540625 0.0309375 2.9375 0.0625 C2.6075 1.0525 2.2775 2.0425 1.9375 3.0625 C-1.625 4.25 -1.625 4.25 -5.0625 5.0625 C-3.9375 0.08035714 -3.9375 0.08035714 0 0 Z " fill="#EF8C63" transform="translate(304.0625,451.9375)"/>
<path d="M0 0 C0 0.66 0 1.32 0 2 C-6.5 6 -6.5 6 -11 6 C-10.67 4.68 -10.34 3.36 -10 2 C-10 2.66 -10 3.32 -10 4 C-9.16855469 3.566875 -9.16855469 3.566875 -8.3203125 3.125 C-7.23363281 2.568125 -7.23363281 2.568125 -6.125 2 C-5.40570313 1.62875 -4.68640625 1.2575 -3.9453125 0.875 C-2 0 -2 0 0 0 Z " fill="#E9654D" transform="translate(332,443)"/>
<path d="M0 0 C-2 3 -2 3 -4.875 3.875 C-8 4 -8 4 -10.375 2.5625 C-10.91125 2.046875 -11.4475 1.53125 -12 1 C-7.95858806 0.36605303 -4.0934693 -0.12404452 0 0 Z " fill="#3D67A9" transform="translate(243,380)"/>
<path d="M0 0 C0.66 0.33 1.32 0.66 2 1 C1.2575 2.11375 1.2575 2.11375 0.5 3.25 C-1.31923475 6.06318188 -1.31923475 6.06318188 -1 10 C-1.66 10 -2.32 10 -3 10 C-4.125 8.25 -4.125 8.25 -5 6 C-3.92886167 2.68920881 -2.98673647 1.99115765 0 0 Z " fill="#C45A16" transform="translate(255,420)"/>
<path d="M0 0 C0.33 0.66 0.66 1.32 1 2 C-4.14285714 8.57142857 -4.14285714 8.57142857 -8 10 C-6.34908222 5.70761377 -3.26245434 3.1206085 0 0 Z " fill="#CF721E" transform="translate(327,467)"/>
<path d="M0 0 C-2.97 2.475 -2.97 2.475 -6 5 C-6.33 4.01 -6.66 3.02 -7 2 C-7.66 1.34 -8.32 0.68 -9 0 C-5.62182575 -0.84454356 -3.32534757 -1.10844919 0 0 Z " fill="#FBD75C" transform="translate(254,401)"/>
<path d="M0 0 C0.33 0.66 0.66 1.32 1 2 C-1.64 2.33 -4.28 2.66 -7 3 C-7 2.34 -7 1.68 -7 1 C-7.66 0.67 -8.32 0.34 -9 0 C-5.67032582 -0.83241855 -3.24733335 -1.2757381 0 0 Z " fill="#D08137" transform="translate(242,392)"/>
<path d="M0 0 C0.66 0.33 1.32 0.66 2 1 C-4.28571429 6.57142857 -4.28571429 6.57142857 -8 7 C-6.88424427 3.65273281 -6.48655378 3.37920252 -3.5625 1.75 C-2.386875 1.1725 -1.21125 0.595 0 0 Z " fill="#354F98" transform="translate(249,379)"/>
<path d="M0 0 C3.3 0 6.6 0 10 0 C10 0.66 10 1.32 10 2 C5.545 2.495 5.545 2.495 1 3 C0.67 2.01 0.34 1.02 0 0 Z " fill="#4DA2D4" transform="translate(229,349)"/>
<path d="M0 0 C2.31 0 4.62 0 7 0 C7 0.99 7 1.98 7 3 C4.69 3.33 2.38 3.66 0 4 C0 2.68 0 1.36 0 0 Z " fill="#EE805D" transform="translate(328,440)"/>
<path d="M0 0 C-3.20336822 2.83374881 -5.78087253 3.5205537 -10 4 C-10 3.34 -10 2.68 -10 2 C-6.5980513 -0.09350689 -3.94727588 -0.17942163 0 0 Z " fill="#CF5D29" transform="translate(589,404)"/>
<path d="M0 0 C3 1 3 1 4.1875 2.75 C5.10819096 5.29960574 5.14948718 7.30923081 5 10 C2.35534962 6.8745041 1.15585285 3.91211733 0 0 Z " fill="#D27118" transform="translate(451,328)"/>
<path d="M0 0 C0 1.66666667 0 3.33333333 0 5 C-2.31 6.32 -4.62 7.64 -7 9 C-5.44499019 5.18315774 -2.96404505 2.80804268 0 0 Z " fill="#F8E28F" transform="translate(222,401)"/>
<path d="M0 0 C2.6875 0.875 2.6875 0.875 5 2 C5 2.33 5 2.66 5 3 C3.72125 3.309375 2.4425 3.61875 1.125 3.9375 C-1.10101675 4.47605244 -2.94739999 4.9737 -5 6 C-3.63016497 2.83884224 -3.0109362 2.0072908 0 0 Z " fill="#DC2920" transform="translate(329,437)"/>
<path d="M0 0 C0 3 0 3 -1.3125 4.38671875 C-2.875 5.59114583 -4.4375 6.79557292 -6 8 C-6.66 7.67 -7.32 7.34 -8 7 C-5.36 4.69 -2.72 2.38 0 0 Z " fill="#FCDA61" transform="translate(262,394)"/>
<path d="M0 0 C0.33 0.66 0.66 1.32 1 2 C-0.28062485 3.7074998 -1.61767557 5.37373596 -3 7 C-3.66 7 -4.32 7 -5 7 C-4.60196439 4.11424181 -4.20990931 3.17810487 -1.9375 1.25 C-1.298125 0.8375 -0.65875 0.425 0 0 Z " fill="#8A4B1A" transform="translate(256,385)"/>
<path d="M0 0 C0.33 0 0.66 0 1 0 C1.125 7.75 1.125 7.75 0 10 C-0.66 10 -1.32 10 -2 10 C-1.54177532 6.53058454 -1.10868317 3.32604951 0 0 Z " fill="#FCEA95" transform="translate(563,373)"/>
<path d="M0 0 C0.33 1.32 0.66 2.64 1 4 C-1.35968744 6.09749995 -2.54616994 6.96905704 -5.75 7.1875 C-6.86375 7.0946875 -6.86375 7.0946875 -8 7 C-5.33440687 5.22293791 -2.9719385 4.12451727 0 3 C0 2.01 0 1.02 0 0 Z " fill="#E5453C" transform="translate(308,453)"/>
<path d="M0 0 C0.66 0 1.32 0 2 0 C1.67 3.3 1.34 6.6 1 10 C-1.29404844 6.55892734 -1.26293056 5.03160191 -1 1 C-0.67 0.67 -0.34 0.34 0 0 Z " fill="#CF6F17" transform="translate(358,393)"/>
<path d="M0 0 C-0.33 0.66 -0.66 1.32 -1 2 C-3.97 1.67 -6.94 1.34 -10 1 C-10 0.67 -10 0.34 -10 0 C-6.33694766 -0.74926071 -3.57644848 -1.2380014 0 0 Z " fill="#D67C15" transform="translate(326,390)"/>
<path d="M0 0 C-1.15173355 2.46800047 -2.04783565 4.04783565 -4 6 C-4.99 5.67 -5.98 5.34 -7 5 C-2.25 0 -2.25 0 0 0 Z " fill="#CE6026" transform="translate(197,287)"/>
</svg>
